<svg width="998" height="1072" viewBox="0 0 998 1072" fill="none" xmlns="http://www.w3.org/2000/svg">
<path d="M75.0497 547.15C74.8197 548.73 74.5997 550.33 74.4097 551.92C74.4797 551.25 74.5797 550.56 74.6697 549.92C74.7897 549 74.9097 548.05 75.0497 547.15Z" fill="url(#paint0_linear_126_5)"/>
<path d="M82.1198 512.65C81.5498 514.73 81.0198 516.82 80.5098 518.92C80.6198 518.49 80.7198 518.04 80.8398 517.6C81.2498 516 81.6698 514.29 82.1198 512.65Z" fill="url(#paint1_linear_126_5)"/>
<path d="M84.4299 504.53C84.4299 504.63 84.3699 504.74 84.3499 504.83C84.1999 505.29 84.0699 505.75 83.9399 506.21C84.0899 505.64 84.2499 505.09 84.4299 504.53Z" fill="url(#paint2_linear_126_5)"/>
<path d="M88.13 493.06C87.75 494.15 87.39 495.24 87.02 496.34L88.13 493.06Z" fill="url(#paint3_linear_126_5)"/>
<path d="M89.1799 490.06C88.8199 491.06 88.4799 492.06 88.1299 493.06C88.1339 493.027 88.1339 492.993 88.1299 492.96C88.4999 492 88.8299 491 89.1799 490.06Z" fill="url(#paint4_linear_126_5)"/>
<path d="M86.86 496.82L87.02 496.34C86.69 497.34 86.35 498.34 86.02 499.34C86.29 498.52 86.57 497.66 86.86 496.82Z" fill="url(#paint5_linear_126_5)"/>
<path d="M91.3698 484.15L90.7598 485.75C91.5998 483.51 92.4598 481.29 93.3698 479.08C92.6898 480.76 91.9998 482.45 91.3698 484.15Z" fill="url(#paint6_linear_126_5)"/>
<path d="M101.12 461.55C100.07 463.74 99.04 465.94 98.04 468.17C99.21 465.54 100.45 462.94 101.71 460.36C101.51 460.76 101.31 461.15 101.12 461.55Z" fill="url(#paint7_linear_126_5)"/>
<path d="M104.42 454.93C103.49 456.72 102.6 458.54 101.71 460.36C102.08 459.6 102.44 458.85 102.83 458.09L104.42 454.93Z" fill="url(#paint8_linear_126_5)"/>
<path d="M115.26 435.66C114.31 437.19 113.39 438.66 112.5 440.24L113.37 438.79L115.26 435.66Z" fill="url(#paint9_linear_126_5)"/>
<path d="M127.19 417.7C125.857 419.587 124.523 421.487 123.19 423.4C124.5 421.49 125.84 419.58 127.19 417.7Z" fill="url(#paint10_linear_126_5)"/>
<path d="M132.68 410.31C131.64 411.683 130.603 413.063 129.57 414.45C130.59 413.063 131.626 411.683 132.68 410.31Z" fill="url(#paint11_linear_126_5)"/>
<path d="M129.57 414.45C128.84 415.45 128.11 416.45 127.4 417.45C128.1 416.45 128.81 415.45 129.54 414.51L129.57 414.45Z" fill="url(#paint12_linear_126_5)"/>
<path d="M132.72 410.28C133.23 409.61 133.72 408.92 134.29 408.28C133.73 408.94 133.23 409.61 132.72 410.28Z" fill="url(#paint13_linear_126_5)"/>
<path d="M144.51 395.88C142.85 397.76 141.23 399.66 139.65 401.58C140.57 400.473 141.497 399.373 142.43 398.28C143.12 397.47 143.81 396.67 144.51 395.88Z" fill="url(#paint14_linear_126_5)"/>
<path d="M147.87 392.08C146.73 393.34 145.61 394.59 144.51 395.88C145.2 395.08 145.9 394.28 146.61 393.49L147.87 392.08Z" fill="url(#paint15_linear_126_5)"/>
<path d="M151.37 388.28C150.23 389.48 149.116 390.69 148.03 391.91C148.46 391.43 148.91 390.91 149.36 390.46C150 389.73 150.69 389 151.37 388.28Z" fill="url(#paint16_linear_126_5)"/>
<path d="M153.41 763.86C154.91 765.45 156.41 767.01 157.98 768.56L157.92 768.69C107.181 717.937 76.8259 650.332 72.6099 578.69C72.6799 579.92 72.7599 581.13 72.8499 582.35C72.9399 583.57 73.0299 584.77 73.1399 585.97C73.2499 587.17 73.3399 588.29 73.4499 589.45C73.4499 589.59 73.4499 589.74 73.4499 589.9C73.5799 591.32 73.7399 592.76 73.8999 594.19C74.1399 596.19 74.3799 598.29 74.6599 600.33C74.7999 601.44 74.9599 602.57 75.1299 603.68C75.4799 606.09 75.8699 608.49 76.2799 610.89C76.4899 612.09 76.6899 613.28 76.9199 614.48C77.5865 618.053 78.3099 621.603 79.0899 625.13C79.6099 627.49 80.1599 629.823 80.7399 632.13C80.9499 632.95 81.1499 633.78 81.3699 634.6L81.8799 636.53C82.1299 637.47 82.3699 638.4 82.6399 639.32C82.9099 640.24 83.1799 641.32 83.4699 642.32C83.7599 643.32 84.1299 644.57 84.4699 645.68C84.9099 647.19 85.3899 648.68 85.8699 650.22C86.2299 651.35 86.5899 652.49 86.9799 653.63C87.3699 654.77 87.8399 656.15 88.2799 657.42C88.2799 657.57 88.3699 657.71 88.4199 657.86C88.6099 658.43 88.8199 658.99 89.0299 659.56C89.2399 660.13 89.3399 660.46 89.4999 660.89L89.5899 661.14C90.0299 662.34 90.4599 663.53 90.9199 664.73C91.2699 665.73 91.6499 666.64 92.0199 667.59C92.2099 668.06 92.3899 668.59 92.5799 669.01C92.6499 669.2 92.7399 669.41 92.8099 669.6C93.1299 670.4 93.4499 671.21 93.8099 672.01C94.2499 673.07 94.6899 674.15 95.1399 675.21C95.5899 676.27 95.9699 677.21 96.4099 678.21C96.4899 678.42 96.5899 678.63 96.6799 678.83C96.8599 679.24 97.0299 679.64 97.2099 680.04C97.3899 680.44 97.6799 681.04 97.9199 681.61C98.0699 681.94 98.2199 682.27 98.3799 682.61C98.8899 683.77 99.3799 684.91 99.9699 686.05C100.005 686.153 100.048 686.254 100.1 686.35C100.134 686.436 100.174 686.52 100.22 686.6C100.73 687.69 101.22 688.76 101.78 689.82C101.88 690.05 101.99 690.27 102.09 690.49L102.75 691.8C103.39 693.1 104.04 694.37 104.75 695.65C105.5 697.11 106.26 698.56 107.04 700.02L108.81 703.26C109.27 704.09 109.73 704.91 110.21 705.74C110.31 705.9 110.41 706.07 110.5 706.24C111.29 707.62 112.07 708.99 112.88 710.34L113.25 710.96C114.07 712.35 114.92 713.74 115.76 715.12C115.84 715.23 115.9 715.34 115.97 715.45C116.69 716.62 117.43 717.8 118.21 718.98C118.6 719.63 119.02 720.27 119.45 720.92C119.62 721.2 119.8 721.48 120 721.76C120.58 722.67 121.18 723.57 121.78 724.47L122.55 725.59C123.35 726.78 124.16 727.95 124.98 729.12C126.2 730.88 127.443 732.623 128.71 734.35C129.43 735.35 130.17 736.35 130.92 737.35C131.027 737.51 131.144 737.664 131.27 737.81C131.91 738.67 132.56 739.53 133.27 740.39C133.98 741.25 134.65 742.19 135.36 743.08C136.07 743.97 136.79 744.87 137.5 745.76L137.62 745.9C139.06 747.68 140.51 749.43 142 751.17C143.49 752.91 145 754.63 146.5 756.34C147.25 757.2 148.01 758.04 148.78 758.88C149.55 759.72 150.32 760.56 151.1 761.39C151.88 762.22 152.61 763 153.41 763.86Z" fill="url(#paint17_linear_126_5)"/>
<path d="M72.4599 576.08C72.5099 576.89 72.5399 577.7 72.5999 578.51C72.5299 577.4 72.4499 576.3 72.3999 575.19C72.3999 575.12 72.3999 575.06 72.3999 574.98V575.13C72.3999 575.23 72.3999 575.32 72.3999 575.42C72.3999 575.52 72.4499 575.87 72.4599 576.08Z" fill="url(#paint18_linear_126_5)"/>
<path d="M72.5999 578.51V578.66C72.595 578.61 72.595 578.56 72.5999 578.51V578.51Z" fill="url(#paint19_linear_126_5)"/>
<path d="M160.63 378.81C159.38 380.03 158.16 381.26 156.94 382.49L153.41 386.1C155.77 383.63 158.17 381.19 160.63 378.81Z" fill="url(#paint20_linear_126_5)"/>
<path d="M161.38 378.09C162.26 377.2 163.16 376.36 164.06 375.51C163.4 376.14 162.73 376.78 162.06 377.42L161.38 378.09Z" fill="url(#paint21_linear_126_5)"/>
<path d="M166.22 373.5C168.94 370.96 171.706 368.487 174.52 366.08L172.8 367.59C170.573 369.53 168.38 371.5 166.22 373.5Z" fill="url(#paint22_linear_126_5)"/>
<path d="M176.27 364.6L176.38 364.51L174.52 366.08C175.09 365.58 175.67 365.09 176.27 364.6Z" fill="url(#paint23_linear_126_5)"/>
<path d="M176.38 364.51C178.38 362.8 180.44 361.1 182.51 359.45C181.67 360.13 180.82 360.82 179.99 361.51C178.77 362.503 177.567 363.503 176.38 364.51Z" fill="url(#paint24_linear_126_5)"/>
<path d="M185.05 357.44C187.68 355.36 190.37 353.34 193.05 351.37C191.17 352.75 189.303 354.153 187.45 355.58L185.05 357.44Z" fill="url(#paint25_linear_126_5)"/>
<path d="M193.08 351.37C194.413 350.41 195.746 349.46 197.08 348.52L193.08 351.37Z" fill="url(#paint26_linear_126_5)"/>
<path d="M197.1 348.49L199.29 346.97L197.13 348.48L197.1 348.49Z" fill="url(#paint27_linear_126_5)"/>
<path d="M210.62 339.53L213.18 337.96L210.62 339.53Z" fill="url(#paint28_linear_126_5)"/>
<path d="M203.24 344.31C204.24 343.62 205.32 342.92 206.37 342.24L205.86 342.57C205 343.14 204.11 343.73 203.24 344.31Z" fill="url(#paint29_linear_126_5)"/>
<path d="M239.35 323.77C241.19 322.89 243.03 322.02 244.88 321.19L244.36 321.42C242.68 322.18 241 323 239.35 323.77Z" fill="url(#paint30_linear_126_5)"/>
<path d="M238.28 324.27L239.35 323.77L238.28 324.27Z" fill="url(#paint31_linear_126_5)"/>
<path d="M221.73 332.94C223.73 331.82 225.73 330.727 227.73 329.66C226.6 330.26 225.48 330.87 224.37 331.48L223.75 331.82L221.73 332.94Z" fill="url(#paint32_linear_126_5)"/>
<path d="M228.39 329.29C231.65 327.557 234.946 325.89 238.28 324.29C236.4 325.203 234.53 326.137 232.67 327.09C231.57 327.64 230.47 328.21 229.38 328.79C229 328.94 228.71 329.11 228.39 329.29Z" fill="url(#paint33_linear_126_5)"/>
<path d="M215.86 336.34L219.4 334.27L218.49 334.79L215.86 336.34Z" fill="url(#paint34_linear_126_5)"/>
<path d="M210.38 339.68L210.62 339.53C209.19 340.42 207.78 341.33 206.37 342.24C207.696 341.413 209.033 340.56 210.38 339.68Z" fill="url(#paint35_linear_126_5)"/>
<path d="M220.11 333.85L221.73 332.94C220.95 333.38 220.17 333.82 219.4 334.27L220.11 333.85Z" fill="url(#paint36_linear_126_5)"/>
<path d="M228.21 329.39L228.39 329.29L227.7 329.66L228.21 329.39Z" fill="url(#paint37_linear_126_5)"/>
<path d="M250.3 318.78C248.48 319.56 246.68 320.37 244.88 321.19L247.88 319.84C248.69 319.47 249.49 319.13 250.3 318.78Z" fill="url(#paint38_linear_126_5)"/>
<path d="M215.41 336.61L215.86 336.34C214.97 336.88 214.07 337.41 213.18 337.96L214.3 337.27L215.41 336.61Z" fill="url(#paint39_linear_126_5)"/>
<path d="M201.48 345.48L203.24 344.31C201.92 345.19 200.6 346.07 199.24 346.97C200 346.46 200.75 346 201.48 345.48Z" fill="url(#paint40_linear_126_5)"/>
<path d="M252.73 317.76C256.063 316.353 259.397 315.02 262.73 313.76C262.54 313.83 262.34 313.9 262.14 313.99C258.98 315.19 255.843 316.447 252.73 317.76Z" fill="url(#paint41_linear_126_5)"/>
<path d="M266.71 312.33C273.09 310.03 279.57 307.95 286.15 306.09L284.23 306.65L281.23 307.55L279.41 308.1C277.95 308.547 276.5 309.007 275.06 309.48C275.03 309.474 275 309.474 274.97 309.48C273.56 309.94 272.16 310.41 270.75 310.89C269.36 311.39 268 311.85 266.71 312.33Z" fill="url(#paint42_linear_126_5)"/>
<path d="M266.42 312.43L266.71 312.33C265.39 312.81 264.07 313.28 262.71 313.78L265.71 312.66L266.42 312.43Z" fill="url(#paint43_linear_126_5)"/>
<path d="M290.51 304.91L292.84 304.3C291.35 304.67 289.84 305.06 288.38 305.48C289.08 305.29 289.79 305.09 290.51 304.91Z" fill="url(#paint44_linear_126_5)"/>
<path d="M292.84 304.3C295.49 303.61 298.14 302.97 300.84 302.37L298 303C297.05 303.21 296.12 303.44 295.18 303.69C294.24 303.94 293.62 304.1 292.84 304.3Z" fill="url(#paint45_linear_126_5)"/>
<path d="M303.63 301.76C304.49 301.56 305.36 301.38 306.22 301.2C304.4 301.56 302.596 301.95 300.81 302.37L303.63 301.76Z" fill="url(#paint46_linear_126_5)"/>
<path d="M310.56 300.33C313.4 299.78 316.27 299.28 319.14 298.82C316.27 299.29 313.4 299.78 310.56 300.33Z" fill="url(#paint47_linear_126_5)"/>
<path d="M351.46 295.46C352.06 295.46 352.67 295.4 353.28 295.37C352.01 295.42 350.75 295.51 349.48 295.58C350.14 295.54 350.79 295.49 351.46 295.46Z" fill="url(#paint48_linear_126_5)"/>
<path d="M327.68 297.6C329.68 297.34 331.716 297.093 333.79 296.86C331.74 297.09 329.71 297.34 327.68 297.6Z" fill="url(#paint49_linear_126_5)"/>
<path d="M336.63 296.56H336.98L333.79 296.9L334.64 296.8L336.63 296.56Z" fill="url(#paint50_linear_126_5)"/>
<path d="M344.19 295.9H344.4C342.99 296 341.58 296.12 340.17 296.24H340.57C341.77 296.08 343 296 344.19 295.9Z" fill="url(#paint51_linear_126_5)"/>
<path d="M326.23 297.78C326.71 297.71 327.23 297.66 327.68 297.6C326.36 297.78 325.03 297.94 323.68 298.13L326.23 297.78Z" fill="url(#paint52_linear_126_5)"/>
<path d="M337 296.52L340.19 296.23L337 296.52Z" fill="url(#paint53_linear_126_5)"/>
<path d="M344.4 295.89C346.09 295.77 347.78 295.67 349.48 295.58C347.78 295.67 346.09 295.76 344.4 295.89Z" fill="url(#paint54_linear_126_5)"/>
<path d="M498.28 298C501.367 297.8 504.453 297.577 507.54 297.33C504.47 297.58 501.37 297.81 498.28 298.02C485.993 298.84 473.613 299.303 461.14 299.41H457.87H455.15C437.817 299.41 420.63 298.743 403.59 297.41H403.49C397.077 296.91 390.7 296.313 384.36 295.62C378.36 295.24 372.287 295.053 366.14 295.06H363.23H366.14C372.26 295.06 378.33 295.247 384.35 295.62C390.697 296.287 397.077 296.883 403.49 297.41H403.59C420.583 298.743 437.77 299.41 455.15 299.41H457.86H461.13C473.61 299.323 485.993 298.853 498.28 298Z" fill="url(#paint55_linear_126_5)"/>
<path d="M358.84 295.18L362.28 295.12H360.45C359.91 295.15 359.38 295.17 358.84 295.18Z" fill="url(#paint56_linear_126_5)"/>
<path d="M358.43 295.19H358.84C356.99 295.24 355.13 295.3 353.28 295.38L355.11 295.31L357.21 295.24L358.43 295.19Z" fill="url(#paint57_linear_126_5)"/>
<path d="M507.54 297.37L512.16 296.98C511.16 297.09 510.16 297.16 509.16 297.25L507.54 297.37Z" fill="url(#paint58_linear_126_5)"/>
<path d="M516.89 296.56C519.91 296.267 522.93 295.96 525.95 295.64L524.23 295.83L519.23 296.33L516.89 296.56Z" fill="url(#paint59_linear_126_5)"/>
<path d="M531 295.07L535.1 294.57L533.86 294.73H533.74C532.8 294.85 531.9 295 531 295.07Z" fill="url(#paint60_linear_126_5)"/>
<path d="M535.08 294.57C538.01 294.21 540.93 293.82 543.86 293.44L539.7 293.99C538.16 294.2 536.62 294.39 535.08 294.57Z" fill="url(#paint61_linear_126_5)"/>
<path d="M548.7 292.75C551.726 292.31 554.726 291.85 557.7 291.37L556.21 291.61C553.75 292 551.23 292.38 548.7 292.75Z" fill="url(#paint62_linear_126_5)"/>
<path d="M558.29 291.28C560.97 290.85 563.63 290.41 566.29 289.94C566.226 289.966 566.159 289.983 566.09 289.99C564.91 290.2 563.72 290.4 562.53 290.59C561.11 290.84 559.71 291.05 558.29 291.28Z" fill="url(#paint63_linear_126_5)"/>
<path d="M461.13 299.44C473.61 299.327 485.993 298.863 498.28 298.05C597.28 291.54 689.7 262.77 769.91 217.05C842.96 175.4 905.91 119.7 954.36 53.9299C963.93 40.9299 984.3 44.9299 988.27 60.5599C994.318 84.3943 997.368 108.89 997.35 133.48C997.35 243.11 937.61 338.78 848.91 389.71C847.682 390.403 846.634 391.375 845.851 392.548C845.067 393.72 844.57 395.06 844.4 396.46C833.56 491.31 756.12 566 660 572.48H659.76C659.76 573.15 659.84 573.82 659.87 574.48C659.892 574.813 659.892 575.147 659.87 575.48C652.22 731.07 523.63 854.9 366.14 854.9C208.65 854.9 80.0599 731.08 72.4199 575.49C72.4199 575.15 72.4199 574.82 72.4199 574.49C80.0599 418.89 208.64 295.09 366.14 295.09C372.26 295.09 378.33 295.277 384.35 295.65C390.697 296.317 397.077 296.913 403.49 297.44H403.59C420.583 298.773 437.77 299.44 455.15 299.44H457.86H461.13Z" fill="#A0E0D4"/>
<path d="M662.8 85.5V85.86C662.8 88.2667 662.77 90.67 662.71 93.07C661.733 129.448 653.256 165.233 637.809 198.183C622.362 231.134 600.278 260.54 572.94 284.56C571.06 286.22 569.17 287.85 567.23 289.46C566.94 289.699 566.597 289.864 566.23 289.94C563.58 290.41 560.92 290.85 558.23 291.28L557.68 291.37C554.68 291.85 551.68 292.31 548.68 292.75L544.16 293.39L543.84 293.44C540.91 293.82 537.99 294.21 535.06 294.57L530.96 295.07C530.05 295.18 529.13 295.29 528.21 295.38C528.071 295.407 527.931 295.423 527.79 295.43L525.93 295.64C522.91 295.96 519.89 296.267 516.87 296.56L512.71 296.93C512.51 296.93 512.33 296.93 512.14 296.98L507.52 297.37C504.44 297.623 501.353 297.847 498.26 298.04C485.973 298.867 473.59 299.33 461.11 299.43H457.84H455.13C437.796 299.43 420.61 298.763 403.57 297.43H403.47C397.056 296.93 390.676 296.333 384.33 295.64C378.33 295.26 372.26 295.073 366.12 295.08C361.806 295.08 357.52 295.177 353.26 295.37C343.365 295.776 333.498 296.697 323.7 298.13C322.22 298.33 320.76 298.55 319.29 298.79H319.12C316.25 299.25 313.38 299.79 310.54 300.3C309.09 300.58 307.64 300.86 306.2 301.17C304.38 301.53 302.576 301.92 300.79 302.34C298.12 302.94 295.47 303.58 292.79 304.27C291.3 304.64 289.79 305.03 288.33 305.45L286.1 306.06C278.16 308.293 270.36 310.857 262.7 313.75C259.326 315.003 255.993 316.337 252.7 317.75C251.886 318.07 251.076 318.403 250.27 318.75C232.373 326.423 215.288 335.867 199.27 346.94C197.176 348.367 195.106 349.833 193.06 351.34C190.35 353.34 187.66 355.34 185.06 357.41C184.21 358.07 183.36 358.73 182.52 359.41C179.82 361.56 177.16 363.78 174.52 366.04C171.706 368.453 168.94 370.927 166.22 373.46C165.49 374.12 164.78 374.79 164.06 375.46C163.16 376.31 162.26 377.15 161.38 378.04L160.68 378.73H160.63C158.17 381.11 155.77 383.55 153.41 386.02C152.72 386.73 152.04 387.46 151.41 388.18C150.27 389.38 149.156 390.59 148.07 391.81L147.91 391.98C146.77 393.24 145.65 394.49 144.55 395.78C142.89 397.66 141.27 399.56 139.69 401.48C138.38 403.04 137.11 404.62 135.85 406.2C135.32 406.85 134.8 407.52 134.29 408.2C133.78 408.88 133.23 409.56 132.72 410.2C130.92 412.54 129.16 414.913 127.44 417.32C127.375 417.414 127.305 417.504 127.23 417.59C125.88 419.47 124.54 421.38 123.23 423.29C122.53 424.29 121.85 425.29 121.23 426.29C119.87 428.29 118.56 430.36 117.23 432.42C116.57 433.42 115.93 434.49 115.3 435.53C114.35 437.06 113.43 438.53 112.54 440.11C112.25 440.6 111.96 441.11 111.69 441.58C111 442.76 110.33 443.95 109.69 445.13C109.2 446 108.69 446.87 108.23 447.76C107.51 449.05 106.81 450.36 106.12 451.66C105.57 452.66 105.02 453.74 104.49 454.8C102.163 459.233 99.9996 463.69 97.9996 468.17C96.9796 470.39 95.9996 472.627 95.0596 474.88C94.9396 475.17 94.7996 475.47 94.6796 475.76C94.3896 476.46 94.0896 477.18 93.8096 477.88C93.6396 478.28 93.4896 478.68 93.3296 479.08C92.4196 481.29 91.5596 483.51 90.7196 485.75C90.7196 485.86 90.6296 485.97 90.5996 486.08C90.5696 486.19 90.5096 486.29 90.4696 486.4C90.0196 487.61 89.5796 488.83 89.1396 490.06C88.0263 493.14 86.9763 496.247 85.9896 499.38C85.6896 500.3 85.3996 501.22 85.1196 502.15C84.8396 503.08 84.6196 503.73 84.3896 504.53C84.2096 505.09 84.0496 505.64 83.8996 506.21C83.7496 506.78 83.5896 507.21 83.4496 507.72C83.3969 507.881 83.3535 508.044 83.3196 508.21C82.8796 509.68 82.4696 511.16 82.0796 512.65C81.5096 514.73 80.9796 516.82 80.4696 518.92C80.3596 519.36 80.2596 519.8 80.1496 520.24C79.9396 521.12 79.7196 522.01 79.5296 522.89C79.3396 523.77 79.1196 524.65 78.9296 525.55C78.6696 526.7 78.4196 527.83 78.1896 528.99C78.0996 529.43 78.0096 529.87 77.9196 530.29C77.7296 531.2 77.5596 532.09 77.3896 533C77.3196 533.38 77.2396 533.77 77.1596 534.16C76.9496 535.24 76.7596 536.31 76.5696 537.4C76.5696 537.5 76.5696 537.61 76.5696 537.7C76.3296 539.03 76.0996 540.36 75.8896 541.7C75.7796 542.36 75.6696 543.02 75.5796 543.7C75.5796 543.82 75.5796 543.96 75.5196 544.08C75.4596 544.2 75.5196 544.36 75.4596 544.49C75.3096 545.38 75.1796 546.28 75.0596 547.19C74.8296 548.77 74.6096 550.37 74.4196 551.96C74.4118 551.979 74.4118 552.001 74.4196 552.02C74.2796 553.16 74.1496 554.29 74.0096 555.42C73.7996 557.26 73.5996 559.1 73.4296 560.93V561.27C73.4296 561.52 73.3796 561.74 73.3696 561.99C73.3096 562.59 73.2596 563.2 73.2096 563.81C73.1993 563.953 73.1993 564.097 73.2096 564.24C73.1496 564.97 73.0896 565.72 73.0296 566.46C72.9596 567.46 72.8896 568.38 72.8296 569.35C72.8391 569.426 72.8391 569.504 72.8296 569.58C72.7696 570.51 72.7096 571.44 72.6596 572.37C72.6596 572.93 72.5896 573.49 72.5696 574.04C72.5796 574.21 72.5796 574.38 72.5696 574.55V574.66C72.5696 574.77 72.5696 574.87 72.5696 574.97C72.5696 575.07 72.5696 575.11 72.5696 575.18C75.0762 627.259 91.3686 677.738 119.781 721.455C148.193 765.173 187.706 800.561 234.28 824L234.35 823.85L234.65 823.99C235.07 824.21 235.5 824.43 235.93 824.63C236.36 824.83 236.74 825.03 237.14 825.23L239.03 826.13C240.87 827.03 242.73 827.9 244.59 828.74L245.3 829.06C245.68 829.24 246.05 829.41 246.43 829.57C247.11 829.87 247.78 830.18 248.43 830.46C248.61 830.55 248.8 830.63 248.98 830.7C250.1 831.2 251.23 831.7 252.36 832.16C253.19 832.51 254.01 832.84 254.83 833.16C255.83 833.6 256.93 834.02 257.99 834.44H258.06L259.06 834.81C259.81 835.12 260.57 835.41 261.32 835.68C261.436 835.738 261.556 835.789 261.68 835.83C263.68 836.6 265.75 837.35 267.79 838.08C271.11 839.25 274.44 840.36 277.79 841.42C277.819 841.424 277.85 841.424 277.88 841.42C283.56 843.2 289.3 844.813 295.1 846.26L297.87 846.93L298.15 846.99C299.06 847.22 299.98 847.42 300.88 847.63L301.61 847.78C302.53 848 303.45 848.19 304.37 848.39L305.07 848.53C306.23 848.79 307.39 849.03 308.55 849.25C310.396 849.623 312.256 849.973 314.13 850.3C314.59 850.4 315.06 850.47 315.52 850.55H315.59C319.103 851.15 322.63 851.69 326.17 852.17C327.36 852.33 328.54 852.49 329.74 852.63L331.36 852.83C332 852.92 332.64 852.99 333.29 853.06L335.77 853.31L336.91 853.42L338.25 853.56C339 853.63 339.75 853.7 340.51 853.75C342.04 853.89 343.56 854.02 345.1 854.12H345.16H345.68H346.21H346.72C347.06 854.12 347.39 854.17 347.72 854.18C347.87 854.18 348 854.18 348.15 854.18H348.6C348.91 854.18 349.24 854.23 349.55 854.24C351.38 854.34 353.2 854.44 355.03 854.48C355.43 854.48 355.84 854.48 356.24 854.48C357.01 854.48 357.77 854.54 358.55 854.56H358.69H360.86C362.59 854.56 364.32 854.56 366.06 854.56C367.8 854.56 369.53 854.56 371.26 854.56H373.42H373.57C374.34 854.56 375.1 854.56 375.88 854.48C376.28 854.48 376.69 854.48 377.09 854.48C378.91 854.48 380.74 854.34 382.56 854.24C382.88 854.24 383.21 854.24 383.56 854.18H384.01C384.149 854.19 384.29 854.19 384.43 854.18C384.78 854.18 385.12 854.18 385.43 854.12H385.94H386.47H386.99H387.07H387.57C388.92 854.02 390.28 853.91 391.63 853.78C392.79 853.7 393.95 853.59 395.1 853.47C396.63 853.32 398.15 853.16 399.66 852.98L401.17 852.81C402.12 852.7 403.06 852.59 403.99 852.46L405.78 852.22C405.892 852.235 406.007 852.235 406.12 852.22C407.26 852.08 408.39 851.92 409.53 851.74C410.36 851.63 411.21 851.5 412.04 851.36L413.04 851.19C413.73 851.1 414.41 850.98 415.04 850.87C416.04 850.7 417.04 850.53 418.09 850.33C419.65 850.07 421.2 849.78 422.75 849.46L423.75 849.28L425 849C426.77 848.65 428.53 848.26 430.27 847.88L430.58 847.8C431.74 847.55 432.88 847.28 434.03 847.01C434.53 846.9 435.03 846.78 435.52 846.65C436.19 846.5 436.85 846.34 437.52 846.17L438.46 845.93C438.79 845.86 439.1 845.77 439.41 845.69L440.89 845.31H440.95L441.3 845.22C441.8 845.09 442.3 844.96 442.8 844.81L444.34 844.4L446.66 843.75L448.98 843.07L449.89 842.81L450.66 842.58L452.78 841.92L454.02 841.54C454.26 841.48 454.49 841.39 454.72 841.32L456.24 840.83C456.73 840.69 457.24 840.52 457.71 840.35H457.77L458.55 840.09C459.37 839.82 460.2 839.55 461.02 839.26C461.29 839.18 461.55 839.09 461.82 838.99C462.43 838.79 463.04 838.57 463.64 838.35C464.08 838.21 464.5 838.05 464.93 837.89C465.36 837.73 465.78 837.59 466.22 837.43C466.66 837.27 467.13 837.11 467.6 836.93H467.68L468.15 836.76L468.54 836.61L469.16 836.38C469.73 836.18 470.28 835.96 470.86 835.73H470.94L471.14 835.65C472.14 835.27 473.14 834.88 474.14 834.48C474.39 834.4 474.64 834.29 474.9 834.19C475.76 833.86 476.62 833.52 477.46 833.19L478.03 832.94C478.84 832.62 479.64 832.28 480.44 831.94L480.65 831.86L482.81 830.93L483.76 830.5C484.83 830.04 485.88 829.58 486.93 829.1C490.09 827.68 493.216 826.2 496.31 824.66H496.4L497.05 824.34L365.88 561.1L398.45 496.05L548.18 791.79L548.26 791.93L559.35 813.81L568.14 831.19C570.07 834.995 570.586 839.363 569.595 843.513C568.604 847.664 566.171 851.327 562.73 853.85L562.2 854.22L561.31 854.83L556.46 858.03L553.46 859.94L552.97 860.25L549.97 862.11C548.55 863 547.13 863.86 545.71 864.71L543.43 866.06C542.92 866.36 542.43 866.65 541.89 866.96C541.35 867.27 540.73 867.65 540.14 867.96C539.55 868.27 539.21 868.5 538.73 868.76C537.04 869.76 535.35 870.7 533.63 871.63C532.54 872.23 531.44 872.83 530.35 873.41C529.26 873.99 528.35 874.46 527.35 874.97C527.09 875.11 526.82 875.26 526.55 875.39L523.54 877C523.465 877.044 523.388 877.084 523.31 877.12C522.06 877.75 520.81 878.36 519.55 878.98C519.27 879.13 518.99 879.26 518.71 879.39C517.51 879.99 516.28 880.57 515.05 881.15C514.946 881.212 514.835 881.263 514.72 881.3L511.79 882.67C510.243 883.377 508.693 884.073 507.14 884.76C506.21 885.19 505.27 885.6 504.32 886C503.37 886.4 502.27 886.88 501.23 887.31C501.165 887.344 501.098 887.374 501.03 887.4C500.03 887.8 499.1 888.21 498.13 888.6C497.16 888.99 496.34 889.33 495.44 889.68L494.18 890.18C493.23 890.55 492.28 890.93 491.32 891.29C490.69 891.55 490.07 891.78 489.43 892.02C488.35 892.43 487.28 892.83 486.21 893.21C484.876 893.703 483.543 894.183 482.21 894.65L479.29 895.65L477.07 896.4C476.07 896.74 475.07 897.06 474.07 897.4C472.72 897.83 471.35 898.27 469.98 898.69C468.61 899.11 467.08 899.6 465.62 900.02C464.34 900.41 463.04 900.79 461.75 901.15C460.46 901.51 458.98 901.92 457.6 902.3L454.06 903.23C453.61 903.36 453.15 903.47 452.7 903.58L451.7 903.83L450.7 904.09L449.5 904.38L448.79 904.55C447.53 904.86 446.26 905.15 445.01 905.44L440.77 906.44L436.53 907.33C432.27 908.203 427.98 908.997 423.66 909.71L421.51 910.06L419.34 910.4C412.206 911.467 404.98 912.333 397.66 913H397.48C391.62 913.52 385.71 913.893 379.75 914.12C378.27 914.18 376.75 914.22 375.28 914.27C371.28 914.38 367.19 914.4 363.13 914.37C361.06 914.37 358.98 914.31 356.9 914.26C356.716 914.27 356.533 914.27 356.35 914.26L353.96 914.19H353.65H352.41L348.01 914H347.35L344.16 913.82C342.05 913.69 339.92 913.54 337.8 913.37L335.68 913.19L333.68 913.01C332.34 912.89 331 912.76 329.68 912.61L329.01 912.55C327.52 912.39 326.01 912.22 324.56 912.04C324.288 912.024 324.018 911.994 323.75 911.95C322.58 911.81 321.43 911.67 320.27 911.51C316.27 911 312.27 910.41 308.36 909.75C306.78 909.49 305.22 909.23 303.66 908.93C302.3 908.69 300.94 908.44 299.58 908.17C298.71 908.02 297.85 907.83 296.98 907.67C295.73 907.42 294.49 907.17 293.24 906.89C291.67 906.56 290.11 906.23 288.54 905.89C286.97 905.55 285.44 905.19 283.9 904.82C282.36 904.45 280.9 904.07 279.33 903.68C278.74 903.54 278.15 903.38 277.57 903.22C276.26 902.88 274.96 902.54 273.66 902.22C272.02 901.77 270.38 901.31 268.76 900.84C267.42 900.46 266.08 900.07 264.76 899.66L263.31 899.22C260.596 898.393 257.9 897.53 255.22 896.63L253.22 895.94C252.02 895.52 250.81 895.11 249.6 894.67L249.42 894.61C247.94 894.09 246.42 893.56 245 893.02L244.63 892.88C243.09 892.32 241.57 891.74 240.04 891.14C237.19 890.04 234.35 888.91 231.52 887.72C231.02 887.52 230.52 887.3 230.02 887.08C228.71 886.54 227.39 885.98 226.1 885.4C224.56 884.73 223.04 884.06 221.52 883.4C220 882.74 218.52 882 216.97 881.29C215.42 880.58 214.15 879.95 212.75 879.29C211.15 878.52 209.57 877.72 207.98 876.92L207.91 877.08C157.334 851.363 113.807 813.679 81.1133 767.306C48.4199 720.934 27.5504 667.276 20.3196 611C20.1696 609.82 20.0196 608.64 19.8896 607.46C19.7596 606.28 19.6296 605.15 19.4996 604.01C19.4947 603.957 19.4947 603.903 19.4996 603.85C18.9996 599.18 18.6096 594.54 18.2896 589.91C18.2196 588.73 18.1296 587.57 18.0696 586.41C17.9396 584.09 17.8196 581.77 17.7396 579.41C17.7396 578.35 17.6596 577.3 17.6296 576.25C17.6197 576.127 17.6197 576.003 17.6296 575.88C17.5696 573.73 17.5396 571.58 17.5096 569.44C17.4496 564.107 17.5163 558.773 17.7096 553.44C21.9996 427 93.7596 317.63 198.08 260.11C224.608 245.463 252.948 234.368 282.37 227.11C286 226.31 289.6 225.48 293.2 224.62C430.05 191.86 548.72 112.37 631.43 3.94C632.844 2.54521 634.58 1.51954 636.484 0.953259C638.388 0.386981 640.403 0.297458 642.349 0.692572C644.296 1.08768 646.116 1.95532 647.649 3.21911C649.182 4.4829 650.381 6.10409 651.14 7.94C655.827 23.1164 659.127 38.687 661 54.46C661.506 58.7467 661.91 63.08 662.21 67.46C662.27 68.33 662.32 69.2 662.38 70.07C662.44 70.94 662.48 71.82 662.52 72.7L662.64 75.32C662.64 76.11 662.7 76.88 662.71 77.67C662.71 78.67 662.77 79.67 662.79 80.72C662.79 82.28 662.8 83.89 662.8 85.5Z" fill="#7BBFB2"/>
<path d="M194.3 696.62L289.73 506.37L331.64 422.83C333.439 420.29 335.863 418.258 338.679 416.932C341.494 415.605 344.605 415.028 347.709 415.258C350.813 415.487 353.805 416.515 356.394 418.241C358.984 419.967 361.084 422.333 362.49 425.11L387.4 474.31L398.4 496.07L365.88 561.1L234.35 823.8L207.86 876.68L207.72 876.97L205 882.44L186.56 919.26L130.93 1030.37C108.98 1063.06 73.3398 1079.37 42.8398 1067.87C32.84 1064.04 24.0802 1057.54 17.5098 1049.08C2.05981 1029.57 -3.49019 999.81 3.86981 969.47C5.02949 964.586 6.50595 959.782 8.28981 955.09C24.6098 911.94 62.4098 885.29 96.9098 890.33H97.1298C129.516 825.77 161.906 761.2 194.3 696.62Z" fill="#5AA092"/>
<path d="M607.68 911.35C600.16 916.08 579.09 928.88 555.57 938.7L555.31 938.18L541.4 910.05L540.24 907.73C558.261 900.206 575.582 891.104 592 880.53L607.51 911.06L607.68 911.35Z" fill="#7BBFB2"/>
<path d="M623.34 942.16C615.15 947.3 594.09 959.95 570.82 969.54L570.61 969.11L555.61 938.7C579.13 928.88 600.2 916.08 607.72 911.35L623.2 941.81L623.34 942.16Z" fill="#A0E0D4"/>
<path d="M639.17 973.31C631.52 978.13 610.17 991.11 586.36 1000.94L586.12 1000.48L570.82 969.54C594.09 959.95 615.15 947.3 623.34 942.16L639 973L639.17 973.31Z" fill="#F5C4B1"/>
<path d="M628.27 1016.53C628.09 1016.62 627.92 1016.72 627.73 1016.8C624.234 1018.59 620.418 1019.67 616.502 1019.97C612.587 1020.27 608.651 1019.79 604.922 1018.56C601.193 1017.33 597.746 1015.37 594.781 1012.79C591.816 1010.22 589.392 1007.08 587.65 1003.56L586.36 1000.94C610.12 991.11 631.52 978.13 639.17 973.31L640.93 976.79C644.47 983.748 645.126 991.82 642.757 999.259C640.387 1006.7 635.182 1012.9 628.27 1016.53V1016.53Z" fill="#FF9B8B"/>
<path d="M570.82 969.54L570.61 969.11" stroke="black" stroke-width="0.25" stroke-miterlimit="10"/>
<path d="M623.34 942.16L623.16 941.81" stroke="black" stroke-width="0.25" stroke-miterlimit="10"/>
<path d="M555.57 938.7L555.31 938.18" stroke="black" stroke-width="0.25" stroke-miterlimit="10"/>
<path d="M607.68 911.35L607.53 911.06" stroke="black" stroke-width="0.25" stroke-miterlimit="10"/>
<path d="M586.36 1000.95L586.12 1000.48" stroke="black" stroke-width="0.25" stroke-miterlimit="10"/>
<path d="M639.17 973.31L639.02 973.02" stroke="black" stroke-width="0.25" stroke-miterlimit="10"/>
<defs>
<linearGradient id="paint0_linear_126_5" x1="73.3697" y1="550.89" x2="76.0796" y2="548.18" gradientUnits="userSpaceOnUse">
<stop stop-color="#863D82"/>
<stop offset="0.92" stop-color="#7982C9"/>
</linearGradient>
<linearGradient id="paint1_linear_126_5" x1="274.273" y1="3784" x2="286.175" y2="3780.94" gradientUnits="userSpaceOnUse">
<stop stop-color="#863D82"/>
<stop offset="0.92" stop-color="#7982C9"/>
</linearGradient>
<linearGradient id="paint2_linear_126_5" x1="145.013" y1="1361.19" x2="145.998" y2="1360.9" gradientUnits="userSpaceOnUse">
<stop stop-color="#863D82"/>
<stop offset="0.92" stop-color="#7982C9"/>
</linearGradient>
<linearGradient id="paint3_linear_126_5" x1="228.523" y1="2132.4" x2="232.905" y2="2130.92" gradientUnits="userSpaceOnUse">
<stop stop-color="#863D82"/>
<stop offset="0.92" stop-color="#7982C9"/>
</linearGradient>
<linearGradient id="paint4_linear_126_5" x1="223.2" y1="1979.77" x2="226.998" y2="1978.44" gradientUnits="userSpaceOnUse">
<stop stop-color="#863D82"/>
<stop offset="0.92" stop-color="#7982C9"/>
</linearGradient>
<linearGradient id="paint5_linear_126_5" x1="212.541" y1="2004.95" x2="216.173" y2="2003.73" gradientUnits="userSpaceOnUse">
<stop stop-color="#863D82"/>
<stop offset="0.92" stop-color="#7982C9"/>
</linearGradient>
<linearGradient id="paint6_linear_126_5" x1="431.991" y1="3738.92" x2="452.996" y2="3730.7" gradientUnits="userSpaceOnUse">
<stop stop-color="#863D82"/>
<stop offset="0.92" stop-color="#7982C9"/>
</linearGradient>
<linearGradient id="paint7_linear_126_5" x1="604.502" y1="4139.9" x2="639.013" y2="4123.68" gradientUnits="userSpaceOnUse">
<stop stop-color="#863D82"/>
<stop offset="0.92" stop-color="#7982C9"/>
</linearGradient>
<linearGradient id="paint8_linear_126_5" x1="486.61" y1="2972.71" x2="504.27" y2="2963.9" gradientUnits="userSpaceOnUse">
<stop stop-color="#863D82"/>
<stop offset="0.92" stop-color="#7982C9"/>
</linearGradient>
<linearGradient id="paint9_linear_126_5" x1="534.89" y1="2468.21" x2="549.751" y2="2459.26" gradientUnits="userSpaceOnUse">
<stop stop-color="#863D82"/>
<stop offset="0.92" stop-color="#7982C9"/>
</linearGradient>
<linearGradient id="paint10_linear_126_5" x1="778.31" y1="2851.42" x2="804.254" y2="2833.21" gradientUnits="userSpaceOnUse">
<stop stop-color="#863D82"/>
<stop offset="0.92" stop-color="#7982C9"/>
</linearGradient>
<linearGradient id="paint11_linear_126_5" x1="659.231" y1="2141.66" x2="673.665" y2="2130.82" gradientUnits="userSpaceOnUse">
<stop stop-color="#863D82"/>
<stop offset="0.92" stop-color="#7982C9"/>
</linearGradient>
<linearGradient id="paint12_linear_126_5" x1="492.396" y1="1678.11" x2="499.719" y2="1672.81" gradientUnits="userSpaceOnUse">
<stop stop-color="#863D82"/>
<stop offset="0.92" stop-color="#7982C9"/>
</linearGradient>
<linearGradient id="paint13_linear_126_5" x1="405.223" y1="1236.68" x2="408.72" y2="1233.93" gradientUnits="userSpaceOnUse">
<stop stop-color="#863D82"/>
<stop offset="0.92" stop-color="#7982C9"/>
</linearGradient>
<linearGradient id="paint14_linear_126_5" x1="1016.59" y1="2706.48" x2="1046.31" y2="2681.14" gradientUnits="userSpaceOnUse">
<stop stop-color="#863D82"/>
<stop offset="0.92" stop-color="#7982C9"/>
</linearGradient>
<linearGradient id="paint15_linear_126_5" x1="767.454" y1="1911.21" x2="780.956" y2="1899.28" gradientUnits="userSpaceOnUse">
<stop stop-color="#863D82"/>
<stop offset="0.92" stop-color="#7982C9"/>
</linearGradient>
<linearGradient id="paint16_linear_126_5" x1="779.155" y1="1825.18" x2="791.747" y2="1813.56" gradientUnits="userSpaceOnUse">
<stop stop-color="#863D82"/>
<stop offset="0.92" stop-color="#7982C9"/>
</linearGradient>
<linearGradient id="paint17_linear_126_5" x1="11180.1" y1="134318" x2="18612.7" y2="130978" gradientUnits="userSpaceOnUse">
<stop stop-color="#863D82"/>
<stop offset="0.92" stop-color="#7982C9"/>
</linearGradient>
<linearGradient id="paint18_linear_126_5" x1="94.9336" y1="2627.97" x2="95.5994" y2="2627.94" gradientUnits="userSpaceOnUse">
<stop stop-color="#863D82"/>
<stop offset="0.92" stop-color="#7982C9"/>
</linearGradient>
<linearGradient id="paint19_linear_126_5" x1="73.0174" y1="665.892" x2="73.0183" y2="665.892" gradientUnits="userSpaceOnUse">
<stop stop-color="#863D82"/>
<stop offset="0.92" stop-color="#7982C9"/>
</linearGradient>
<linearGradient id="paint20_linear_126_5" x1="1556.83" y1="3222.5" x2="1609.76" y2="3170.08" gradientUnits="userSpaceOnUse">
<stop stop-color="#863D82"/>
<stop offset="0.92" stop-color="#7982C9"/>
</linearGradient>
<linearGradient id="paint21_linear_126_5" x1="703.837" y1="1361.35" x2="710.618" y2="1354.31" gradientUnits="userSpaceOnUse">
<stop stop-color="#863D82"/>
<stop offset="0.92" stop-color="#7982C9"/>
</linearGradient>
<linearGradient id="paint22_linear_126_5" x1="1887.97" y1="3168.77" x2="1945.93" y2="3103.94" gradientUnits="userSpaceOnUse">
<stop stop-color="#863D82"/>
<stop offset="0.92" stop-color="#7982C9"/>
</linearGradient>
<linearGradient id="paint23_linear_126_5" x1="575.536" y1="945.637" x2="578.165" y2="942.505" gradientUnits="userSpaceOnUse">
<stop stop-color="#863D82"/>
<stop offset="0.92" stop-color="#7982C9"/>
</linearGradient>
<linearGradient id="paint24_linear_126_5" x1="1510.51" y1="2225.48" x2="1538.33" y2="2191.77" gradientUnits="userSpaceOnUse">
<stop stop-color="#863D82"/>
<stop offset="0.92" stop-color="#7982C9"/>
</linearGradient>
<linearGradient id="paint25_linear_126_5" x1="1997.37" y1="2548.29" x2="2038.58" y2="2493.97" gradientUnits="userSpaceOnUse">
<stop stop-color="#863D82"/>
<stop offset="0.92" stop-color="#7982C9"/>
</linearGradient>
<linearGradient id="paint26_linear_126_5" x1="1130.52" y1="1362.15" x2="1139.76" y2="1349.19" gradientUnits="userSpaceOnUse">
<stop stop-color="#863D82"/>
<stop offset="0.92" stop-color="#7982C9"/>
</linearGradient>
<linearGradient id="paint27_linear_126_5" x1="718.908" y1="883.009" x2="721.542" y2="879.214" gradientUnits="userSpaceOnUse">
<stop stop-color="#863D82"/>
<stop offset="0.92" stop-color="#7982C9"/>
</linearGradient>
<linearGradient id="paint28_linear_126_5" x1="855.406" y1="877.697" x2="858.303" y2="872.974" gradientUnits="userSpaceOnUse">
<stop stop-color="#863D82"/>
<stop offset="0.92" stop-color="#7982C9"/>
</linearGradient>
<linearGradient id="paint29_linear_126_5" x1="968.554" y1="1063.8" x2="973.506" y2="1056.31" gradientUnits="userSpaceOnUse">
<stop stop-color="#863D82"/>
<stop offset="0.92" stop-color="#7982C9"/>
</linearGradient>
<linearGradient id="paint30_linear_126_5" x1="1793.78" y1="1168.72" x2="1801.78" y2="1151.55" gradientUnits="userSpaceOnUse">
<stop stop-color="#863D82"/>
<stop offset="0.92" stop-color="#7982C9"/>
</linearGradient>
<linearGradient id="paint31_linear_126_5" x1="537.261" y1="487.975" x2="537.564" y2="487.327" gradientUnits="userSpaceOnUse">
<stop stop-color="#863D82"/>
<stop offset="0.92" stop-color="#7982C9"/>
</linearGradient>
<linearGradient id="paint32_linear_126_5" x1="1802.19" y1="1437.02" x2="1814.95" y2="1413.69" gradientUnits="userSpaceOnUse">
<stop stop-color="#863D82"/>
<stop offset="0.92" stop-color="#7982C9"/>
</linearGradient>
<linearGradient id="paint33_linear_126_5" x1="2904.62" y1="1996.84" x2="2934.66" y2="1937.43" gradientUnits="userSpaceOnUse">
<stop stop-color="#863D82"/>
<stop offset="0.92" stop-color="#7982C9"/>
</linearGradient>
<linearGradient id="paint34_linear_126_5" x1="1126.46" y1="1039.54" x2="1131.5" y2="1030.89" gradientUnits="userSpaceOnUse">
<stop stop-color="#863D82"/>
<stop offset="0.92" stop-color="#7982C9"/>
</linearGradient>
<linearGradient id="paint35_linear_126_5" x1="1259.35" y1="1278.89" x2="1267.87" y2="1265.5" gradientUnits="userSpaceOnUse">
<stop stop-color="#863D82"/>
<stop offset="0.92" stop-color="#7982C9"/>
</linearGradient>
<linearGradient id="paint36_linear_126_5" x1="826.719" y1="783.167" x2="828.815" y2="779.495" gradientUnits="userSpaceOnUse">
<stop stop-color="#863D82"/>
<stop offset="0.92" stop-color="#7982C9"/>
</linearGradient>
<linearGradient id="paint37_linear_126_5" x1="413.159" y1="452.772" x2="413.322" y2="452.468" gradientUnits="userSpaceOnUse">
<stop stop-color="#863D82"/>
<stop offset="0.92" stop-color="#7982C9"/>
</linearGradient>
<linearGradient id="paint38_linear_126_5" x1="1798.46" y1="1104.3" x2="1805.46" y2="1088.56" gradientUnits="userSpaceOnUse">
<stop stop-color="#863D82"/>
<stop offset="0.92" stop-color="#7982C9"/>
</linearGradient>
<linearGradient id="paint39_linear_126_5" x1="895.104" y1="890.735" x2="898.194" y2="885.646" gradientUnits="userSpaceOnUse">
<stop stop-color="#863D82"/>
<stop offset="0.92" stop-color="#7982C9"/>
</linearGradient>
<linearGradient id="paint40_linear_126_5" x1="1161.68" y1="1278.74" x2="1169.81" y2="1266.56" gradientUnits="userSpaceOnUse">
<stop stop-color="#863D82"/>
<stop offset="0.92" stop-color="#7982C9"/>
</linearGradient>
<linearGradient id="paint41_linear_126_5" x1="3205.13" y1="1606.84" x2="3224.42" y2="1558.55" gradientUnits="userSpaceOnUse">
<stop stop-color="#863D82"/>
<stop offset="0.92" stop-color="#7982C9"/>
</linearGradient>
<linearGradient id="paint42_linear_126_5" x1="6312.75" y1="2300.58" x2="6359.38" y2="2155.3" gradientUnits="userSpaceOnUse">
<stop stop-color="#863D82"/>
<stop offset="0.92" stop-color="#7982C9"/>
</linearGradient>
<linearGradient id="paint43_linear_126_5" x1="1480.23" y1="774.014" x2="1482.75" y2="767.099" gradientUnits="userSpaceOnUse">
<stop stop-color="#863D82"/>
<stop offset="0.92" stop-color="#7982C9"/>
</linearGradient>
<linearGradient id="paint44_linear_126_5" x1="1761.07" y1="670.461" x2="1762.71" y2="664.241" gradientUnits="userSpaceOnUse">
<stop stop-color="#863D82"/>
<stop offset="0.92" stop-color="#7982C9"/>
</linearGradient>
<linearGradient id="paint45_linear_126_5" x1="2975.64" y1="900.301" x2="2980" y2="882.245" gradientUnits="userSpaceOnUse">
<stop stop-color="#863D82"/>
<stop offset="0.92" stop-color="#7982C9"/>
</linearGradient>
<linearGradient id="paint46_linear_126_5" x1="2155.74" y1="660.888" x2="2157.33" y2="653.533" gradientUnits="userSpaceOnUse">
<stop stop-color="#863D82"/>
<stop offset="0.92" stop-color="#7982C9"/>
</linearGradient>
<linearGradient id="paint47_linear_126_5" x1="3342.14" y1="761.025" x2="3344.74" y2="746.232" gradientUnits="userSpaceOnUse">
<stop stop-color="#863D82"/>
<stop offset="0.92" stop-color="#7982C9"/>
</linearGradient>
<linearGradient id="paint48_linear_126_5" x1="1836.72" y1="358.468" x2="1836.77" y2="357.631" gradientUnits="userSpaceOnUse">
<stop stop-color="#863D82"/>
<stop offset="0.92" stop-color="#7982C9"/>
</linearGradient>
<linearGradient id="paint49_linear_126_5" x1="2588.51" y1="521.049" x2="2589.11" y2="516.046" gradientUnits="userSpaceOnUse">
<stop stop-color="#863D82"/>
<stop offset="0.92" stop-color="#7982C9"/>
</linearGradient>
<linearGradient id="paint50_linear_126_5" x1="1531.64" y1="399.096" x2="1531.76" y2="397.913" gradientUnits="userSpaceOnUse">
<stop stop-color="#863D82"/>
<stop offset="0.92" stop-color="#7982C9"/>
</linearGradient>
<linearGradient id="paint51_linear_126_5" x1="1956.61" y1="398.307" x2="1956.74" y2="396.76" gradientUnits="userSpaceOnUse">
<stop stop-color="#863D82"/>
<stop offset="0.92" stop-color="#7982C9"/>
</linearGradient>
<linearGradient id="paint52_linear_126_5" x1="1785.96" y1="458.184" x2="1786.27" y2="455.84" gradientUnits="userSpaceOnUse">
<stop stop-color="#863D82"/>
<stop offset="0.92" stop-color="#7982C9"/>
</linearGradient>
<linearGradient id="paint53_linear_126_5" x1="1545.05" y1="383.586" x2="1545.15" y2="382.579" gradientUnits="userSpaceOnUse">
<stop stop-color="#863D82"/>
<stop offset="0.92" stop-color="#7982C9"/>
</linearGradient>
<linearGradient id="paint54_linear_126_5" x1="2308.28" y1="388.923" x2="2308.39" y2="387.255" gradientUnits="userSpaceOnUse">
<stop stop-color="#863D82"/>
<stop offset="0.92" stop-color="#7982C9"/>
</linearGradient>
<linearGradient id="paint55_linear_126_5" x1="63985.2" y1="1755.63" x2="64003.8" y2="1138.21" gradientUnits="userSpaceOnUse">
<stop stop-color="#863D82"/>
<stop offset="0.92" stop-color="#7982C9"/>
</linearGradient>
<linearGradient id="paint56_linear_126_5" x1="1737.21" y1="313.121" x2="1737.22" y2="312.912" gradientUnits="userSpaceOnUse">
<stop stop-color="#863D82"/>
<stop offset="0.92" stop-color="#7982C9"/>
</linearGradient>
<linearGradient id="paint57_linear_126_5" x1="2552.98" y1="352.326" x2="2553.02" y2="351.236" gradientUnits="userSpaceOnUse">
<stop stop-color="#863D82"/>
<stop offset="0.92" stop-color="#7982C9"/>
</linearGradient>
<linearGradient id="paint58_linear_126_5" x1="3046.69" y1="414.919" x2="3046.85" y2="412.983" gradientUnits="userSpaceOnUse">
<stop stop-color="#863D82"/>
<stop offset="0.92" stop-color="#7982C9"/>
</linearGradient>
<linearGradient id="paint59_linear_126_5" x1="5589.76" y1="574.018" x2="5590.69" y2="564.93" gradientUnits="userSpaceOnUse">
<stop stop-color="#863D82"/>
<stop offset="0.92" stop-color="#7982C9"/>
</linearGradient>
<linearGradient id="paint60_linear_126_5" x1="2879.79" y1="444.555" x2="2880.07" y2="442.289" gradientUnits="userSpaceOnUse">
<stop stop-color="#863D82"/>
<stop offset="0.92" stop-color="#7982C9"/>
</linearGradient>
<linearGradient id="paint61_linear_126_5" x1="5609.81" y1="632.984" x2="5611.23" y2="621.979" gradientUnits="userSpaceOnUse">
<stop stop-color="#863D82"/>
<stop offset="0.92" stop-color="#7982C9"/>
</linearGradient>
<linearGradient id="paint62_linear_126_5" x1="5873.28" y1="703.522" x2="5875.43" y2="689.499" gradientUnits="userSpaceOnUse">
<stop stop-color="#863D82"/>
<stop offset="0.92" stop-color="#7982C9"/>
</linearGradient>
<linearGradient id="paint63_linear_126_5" x1="5365.89" y1="687.838" x2="5367.93" y2="675.666" gradientUnits="userSpaceOnUse">
<stop stop-color="#863D82"/>
<stop offset="0.92" stop-color="#7982C9"/>
</linearGradient>
</defs>
</svg>
