<?xml version="1.0" standalone="no"?>
<!DOCTYPE svg PUBLIC "-//W3C//DTD SVG 20010904//EN"
 "http://www.w3.org/TR/2001/REC-SVG-20010904/DTD/svg10.dtd">
<svg version="1.0" xmlns="http://www.w3.org/2000/svg"
 width="183.000000pt" height="180.000000pt" viewBox="0 0 183.000000 180.000000"
 preserveAspectRatio="xMidYMid meet">
<metadata>
Created by potrace 1.16, written by Peter Selinger 2001-2019
</metadata>
<g transform="translate(0.000000,180.000000) scale(0.100000,-0.100000)"
fill="#000000" stroke="none">
<path d="M745 1780 c-322 -49 -594 -280 -693 -590 -150 -466 124 -962 603
-1091 113 -30 307 -31 420 0 385 103 645 439 645 831 0 460 -358 833 -819 855
-53 2 -123 0 -156 -5z m-172 -644 c44 -16 77 -43 77 -63 0 -24 -28 -25 -60 -1
-25 18 -44 23 -93 23 -73 0 -115 -24 -142 -81 -23 -49 -17 -143 12 -182 52
-69 150 -86 223 -38 45 30 56 32 63 12 6 -16 -24 -47 -70 -70 -41 -20 -123
-21 -171 -1 -164 69 -171 309 -11 389 59 29 113 33 172 12z m374 -21 c32 -32
35 -40 30 -73 -7 -40 -54 -92 -84 -92 -12 0 -2 -16 32 -50 l50 -50 22 45 c22
43 45 57 58 35 3 -5 -6 -32 -20 -61 l-27 -51 33 -34 c20 -20 29 -39 26 -48 -9
-24 -30 -19 -61 13 l-28 29 -46 -29 c-73 -46 -165 -36 -206 23 -9 12 -16 42
-16 66 0 36 6 50 33 76 17 18 39 35 47 38 12 4 13 7 2 20 -41 50 -31 127 22
159 49 30 92 25 133 -16z m382 24 c21 -6 48 -19 62 -30 22 -16 22 -20 9 -34
-14 -14 -20 -13 -55 5 -47 24 -112 26 -143 4 -25 -17 -31 -74 -9 -92 6 -5 51
-22 99 -36 102 -31 128 -55 128 -121 0 -72 -56 -115 -148 -115 -74 1 -169 51
-156 83 8 23 17 22 64 -9 77 -51 190 -30 190 36 0 46 -21 60 -137 90 -23 6
-56 22 -73 36 -26 22 -30 33 -30 72 0 55 20 85 70 106 42 18 80 20 129 5z"/>
<path d="M785 895 c-30 -30 -34 -84 -7 -108 28 -25 75 -31 109 -14 55 29 55
37 3 95 -27 28 -56 52 -65 52 -9 0 -27 -11 -40 -25z"/>
</g>
</svg>
