<?xml version="1.0" standalone="no"?>
<!DOCTYPE svg PUBLIC "-//W3C//DTD SVG 20010904//EN"
 "http://www.w3.org/TR/2001/REC-SVG-20010904/DTD/svg10.dtd">
<svg version="1.0" xmlns="http://www.w3.org/2000/svg"
 width="200.000000pt" height="200.000000pt" viewBox="0 0 200.000000 200.000000"
 preserveAspectRatio="xMidYMid meet">
<metadata>
Created by potrace 1.16, written by Peter Selinger 2001-2019
</metadata>
<g transform="translate(0.000000,200.000000) scale(0.100000,-0.100000)"
fill="#000000" stroke="none">
<path d="M962 1700 c-177 -47 -334 -173 -410 -330 -56 -114 -75 -194 -75 -310
0 -116 22 -210 70 -310 29 -58 57 -95 127 -165 128 -128 231 -174 404 -183
l102 -5 0 111 c0 122 1 123 63 132 34 4 43 12 74 63 l36 57 -18 40 c-20 44
-31 50 -40 21 -3 -11 -19 -34 -35 -50 -23 -26 -36 -31 -74 -31 -33 0 -46 4
-46 14 0 19 98 187 118 204 9 6 34 12 56 12 49 0 58 6 80 47 24 47 20 70 -25
153 -58 108 -63 111 -88 61 l-21 -41 25 -50 c14 -27 25 -52 25 -55 0 -3 -24
-5 -54 -5 -52 0 -86 16 -86 40 0 5 -12 22 -26 39 -23 27 -32 31 -78 31 -38 0
-57 -5 -68 -17 -19 -22 -108 -182 -108 -195 0 -5 26 -8 57 -6 56 3 57 4 83 47
14 25 30 46 36 48 6 2 24 -20 39 -50 l28 -53 -29 -55 -29 -54 -65 -5 c-60 -5
-66 -7 -87 -39 -34 -50 -30 -61 20 -61 24 0 50 -6 59 -12 27 -23 61 -79 52
-88 -5 -4 -56 -5 -112 -3 l-104 6 -34 46 c-40 54 -40 59 -13 113 l21 41 -23
49 c-12 26 -25 48 -29 48 -3 0 -16 -20 -28 -45 -18 -38 -26 -45 -50 -45 -15 0
-36 6 -46 13 -17 13 -17 17 13 88 46 111 52 117 114 121 52 3 52 3 79 57 l27
53 -20 39 c-10 21 -23 39 -27 39 -4 0 -19 -20 -34 -44 -23 -39 -31 -44 -68
-48 -27 -2 -44 1 -47 8 -5 15 18 61 68 135 29 43 45 58 70 63 63 12 76 8 106
-36 l29 -43 112 -3 c124 -3 128 0 86 55 -22 30 -30 33 -75 33 -58 0 -65 18
-24 63 22 22 34 27 75 27 l50 0 0 120 0 120 -67 -1 c-38 0 -101 -9 -141 -19z"/>
</g>
</svg>
