<svg width="152" height="50" viewBox="0 0 152 50" fill="none" xmlns="http://www.w3.org/2000/svg">
<rect width="152" height="50" fill="white"/>
<g clip-path="url(#clip0)">
<path d="M68.609 10.314H61.4194C61.1113 10.314 60.9058 10.52 60.9058 10.829C60.5977 14.0225 59.3652 31.5351 59.2625 33.2863C59.2625 33.3893 59.1598 33.4924 59.0571 33.4924C58.9544 33.4924 58.8517 33.3893 58.8517 33.2863C58.749 31.4321 57.4138 14.0225 57.2084 10.829C57.2084 10.52 56.9002 10.314 56.6948 10.314H49.5052C49.1971 10.314 48.9917 10.623 48.9917 10.829V35.4496C48.9917 35.7587 49.2998 35.9647 49.5052 35.9647H52.6892C52.9973 35.9647 53.2027 35.6557 53.2027 35.4496V13.4044C53.2027 13.3014 53.2027 13.3014 53.3054 13.1984C53.3054 13.1984 53.4081 13.0954 53.5109 13.0954C53.6136 13.0954 53.7163 13.1984 53.7163 13.3014C53.9217 15.3617 55.3596 32.3592 55.565 35.4496C55.565 35.7587 55.8731 35.9647 56.0786 35.9647H62.2411C62.5492 35.9647 62.7546 35.7587 62.7546 35.4496C63.0627 32.2562 64.3979 15.4647 64.6033 13.3014C64.6033 13.1984 64.7061 13.0954 64.9115 13.0954C65.0142 13.0954 65.1169 13.1984 65.1169 13.3014V35.4496C65.1169 35.7587 65.425 35.9647 65.6304 35.9647H68.8144C69.1225 35.9647 69.3279 35.6557 69.3279 35.4496V10.829C69.1225 10.52 68.8144 10.314 68.609 10.314Z" fill="#0C2146"/>
<path d="M88.8424 31.7411H84.7341C84.4259 31.7411 84.2205 31.432 84.2205 31.226V18.6581C84.2205 18.3491 83.9124 18.1431 83.707 18.1431H74.6687C74.3605 18.1431 74.1551 18.4521 74.1551 18.6581V21.9546C74.1551 22.1607 74.2578 22.2637 74.3605 22.3667C74.4632 22.4697 74.6687 22.5727 74.7714 22.5727H79.2905C79.3932 22.5727 79.5987 22.6757 79.7014 22.7787C79.8041 22.8818 79.9068 23.0878 79.9068 23.1908V31.432C79.9068 31.7411 79.5987 31.9471 79.3932 31.9471H74.4632C74.1551 31.9471 73.9497 32.2561 73.9497 32.4622V35.7586C73.9497 35.9647 74.0524 36.0677 74.1551 36.1707C74.2578 36.2737 74.4632 36.3767 74.566 36.3767H89.1505C89.2532 36.3767 89.4586 36.2737 89.5613 36.1707C89.6641 36.0677 89.7668 35.8617 89.7668 35.7586V32.4622C89.4586 32.0501 89.1505 31.7411 88.8424 31.7411Z" fill="#0C2146"/>
<path d="M83.3991 10.1079H79.0853C78.7772 10.1079 78.5718 10.417 78.5718 10.623V15.0526C78.5718 15.3617 78.8799 15.5677 79.0853 15.5677H83.3991C83.7072 15.5677 83.9126 15.2587 83.9126 15.0526V10.623C84.0153 10.3139 83.7072 10.1079 83.3991 10.1079Z" fill="#0C2146"/>
<path d="M108.562 19.2762C108.049 18.7611 107.33 18.246 106.611 18.04C105.892 17.7309 105.07 17.6279 104.146 17.6279C102.913 17.6279 101.886 17.937 100.962 18.4521C100.14 18.9671 98.8052 20.8214 98.8052 20.8214C98.497 20.8214 98.3943 20.6154 98.3943 20.4093V18.6581C98.3943 18.4521 98.2916 18.349 98.1889 18.246C98.0862 18.143 97.8808 18.04 97.7781 18.04H94.3887C94.286 18.04 94.0806 18.143 93.9779 18.246C93.8752 18.349 93.7725 18.5551 93.7725 18.6581V35.5526C93.7725 35.7586 93.8752 35.8616 93.9779 35.9646C94.0806 36.0676 94.286 36.1706 94.3887 36.1706H97.7781C98.0862 36.1706 98.2916 35.8616 98.2916 35.6556V26.7963C98.2916 25.251 98.7024 24.1179 99.3187 23.1907C99.9349 22.2636 100.962 21.8515 102.297 21.8515C103.427 21.8515 104.249 22.2636 104.968 22.9847C105.584 23.7058 105.892 24.736 105.892 26.0752V35.8616C105.892 36.1706 106.2 36.3767 106.406 36.3767H109.795C109.898 36.3767 110.103 36.2737 110.206 36.1706C110.308 36.0676 110.411 35.8616 110.411 35.7586V24.633C110.411 23.3968 110.206 22.3666 110 21.4395C109.692 20.5124 109.179 19.7912 108.562 19.2762Z" fill="#0C2146"/>
<path d="M124.893 27.3114C124.791 27.2084 124.791 27.1054 124.791 26.8994V26.6933C124.791 26.5903 124.791 26.4873 124.893 26.3843C125.612 25.2511 130.029 18.9672 130.542 18.3491V18.2461C130.542 18.1431 130.44 18.0401 130.337 18.0401H125.818C125.612 18.0401 125.407 18.1431 125.407 18.2461C124.688 19.2763 121.709 23.3969 120.99 24.427C120.888 24.53 120.682 24.633 120.58 24.633C120.271 24.633 120.066 24.324 120.066 24.118V10.726C120.066 10.417 119.758 10.2109 119.552 10.2109H116.163C116.06 10.2109 115.855 10.314 115.752 10.417C115.65 10.52 115.547 10.726 115.547 10.829V35.7587C115.547 35.9647 115.65 36.0677 115.752 36.1707C115.855 36.2737 116.06 36.3768 116.163 36.3768H119.552C119.655 36.3768 119.861 36.2737 119.963 36.1707C120.066 36.0677 120.169 35.8617 120.169 35.7587V29.7838C120.169 29.4748 120.477 29.2687 120.682 29.2687C120.888 29.2687 121.093 29.3717 121.093 29.4748C121.812 30.6079 125.099 35.0376 125.92 36.0677C126.023 36.1707 126.229 36.2737 126.331 36.2737H131.056H131.159V35.9647V35.8617C130.44 35.1406 125.612 28.4446 124.893 27.3114Z" fill="#0C2146"/>
<path d="M151.084 31.638H150.57C150.365 31.638 150.262 31.5349 150.159 31.4319C150.056 31.3289 149.954 31.1229 149.954 31.0199C149.954 30.7108 149.954 30.5048 149.954 30.5048V18.555C149.954 18.349 149.851 18.246 149.748 18.143C149.646 18.04 149.44 17.937 149.337 17.937H145.948C145.845 17.937 145.64 18.04 145.537 18.143C145.435 18.246 145.332 18.452 145.332 18.555V19.6882C145.332 19.9973 145.126 20.1003 144.921 20.1003C144.818 20.1003 144.613 19.9973 144.613 19.8942C144.202 19.0701 143.586 18.452 142.867 18.04C142.045 17.6279 141.018 17.4219 139.786 17.4219C138.656 17.4219 137.834 17.6279 136.807 18.04C135.883 18.452 135.061 19.1731 134.342 19.8942C133.623 20.7184 133.11 21.6455 132.699 22.7787C132.288 23.9118 132.083 25.251 132.083 26.6932V27.2083C132.083 28.6505 132.288 29.9897 132.699 31.1229C133.11 32.256 133.726 33.1832 134.445 34.0073C135.164 34.8314 135.985 35.4495 137.012 35.8616C137.937 36.2736 138.964 36.4797 140.094 36.4797C141.224 36.4797 142.251 36.1706 143.072 35.7586C143.894 35.3465 144.51 34.6254 144.921 33.4922C144.921 33.3892 145.126 33.2862 145.229 33.2862C145.332 33.2862 145.435 33.2862 145.537 33.3892C145.64 33.4922 145.64 33.5952 145.64 33.6983C145.64 34.1103 145.64 34.8314 145.64 35.3465C145.64 35.5525 145.743 35.6555 145.845 35.7586C145.948 35.8616 146.154 35.9646 146.256 35.9646H151.084C151.392 35.9646 151.597 35.6555 151.597 35.4495V32.3591C151.7 31.947 151.392 31.638 151.084 31.638ZM145.537 27.2083C145.537 28.7535 145.126 29.8867 144.408 30.8138C143.586 31.741 142.559 32.153 141.224 32.153C139.888 32.153 138.861 31.741 138.04 30.8138C137.218 29.8867 136.91 28.7535 136.91 27.2083V26.7962C136.91 25.251 137.321 24.1179 138.04 23.1907C138.759 22.2636 139.888 21.8515 141.224 21.8515C142.559 21.8515 143.586 22.2636 144.408 23.1907C145.229 24.1179 145.537 25.251 145.537 26.7962V27.2083Z" fill="#0C2146"/>
<path d="M12.6333 14.8468C12.5306 14.7438 12.4278 14.7438 12.3251 14.8468L6.05994 21.1307C5.95723 21.2337 5.95723 21.3367 6.05994 21.4398L7.70327 23.088C7.80598 23.191 7.90869 23.191 8.0114 23.088L14.2766 16.8041C14.3793 16.7011 14.3793 16.598 14.2766 16.495L12.6333 14.8468Z" fill="#0C2146"/>
<path d="M10.5789 26.8995C10.6817 26.7965 10.6817 26.6935 10.5789 26.5904L3.90291 19.7914C3.8002 19.6884 3.8002 19.5854 3.90291 19.4824L7.29228 16.0829C7.39499 15.9799 7.4977 15.9799 7.60041 16.0829L8.7302 17.2161C8.8329 17.3191 8.93561 17.3191 9.03832 17.2161L10.6817 15.5678C10.7844 15.4648 10.7844 15.3618 10.6817 15.2588L9.55186 14.1256C9.44915 14.0226 9.44915 13.9196 9.55186 13.8166L11.1952 12.1683C11.0925 12.2713 11.1952 12.2713 11.2979 12.3744L16.6387 17.7311C16.7414 17.8342 16.7414 17.9372 16.6387 18.0402L15.0981 19.4824C14.9954 19.5854 14.8927 19.5854 14.79 19.4824L13.6602 18.3492C13.5575 18.2462 13.4548 18.2462 13.3521 18.3492L11.7087 19.9975C11.606 20.1005 11.606 20.2035 11.7087 20.3065L14.3791 23.0879C14.4819 23.1909 14.5846 23.294 14.6873 23.294C14.79 23.294 14.9954 23.1909 14.9954 23.1909L15.0981 23.0879L15.2008 22.9849L20.1308 18.1432C20.2335 18.0402 20.3362 17.9372 20.3362 17.8342C20.3362 17.7311 20.2335 17.5251 20.2335 17.5251L20.1308 17.4221L13.1466 10.4171C13.0439 10.3141 13.0439 10.211 13.1466 10.108L16.536 6.70853C16.6387 6.60552 16.7414 6.60552 16.8441 6.70853L17.9739 7.94471C18.0766 8.04773 18.1793 8.04773 18.2821 7.94471L19.9254 6.29647C20.0281 6.19346 20.0281 6.09044 19.9254 5.98742L17.0496 3.103C16.9469 2.99999 16.8441 2.89697 16.7414 2.89697C16.6387 2.89697 16.4333 2.99999 16.4333 3.103L0.205416 19.3794C0.102708 19.4824 0 19.5854 0 19.6884C0 19.6884 0 19.6884 0 19.7914C0 19.7914 0 19.7914 0 19.8945C0 19.8945 0.102708 19.9975 0.205416 20.1005L8.7302 28.6507C8.8329 28.7538 8.93561 28.7538 9.03832 28.6507L10.5789 26.8995Z" fill="#0C2146"/>
<path d="M11.7089 31.123C11.6062 31.226 11.6062 31.329 11.7089 31.432L17.9741 37.7159C18.0768 37.819 18.1795 37.819 18.2822 37.7159L19.9255 36.0677C20.0282 35.9647 20.0282 35.8617 19.9255 35.7586L13.6603 29.4747C13.5576 29.3717 13.4549 29.3717 13.3522 29.4747L11.7089 31.123Z" fill="#0C2146"/>
<path d="M23.7256 33.1834C23.6229 33.0804 23.5202 33.0804 23.4175 33.1834L16.6387 39.9824C16.536 40.0855 16.4333 40.0855 16.3306 39.9824L12.9412 36.5829C12.8385 36.4799 12.8385 36.3769 12.9412 36.2739L14.071 35.1407C14.1737 35.0377 14.1737 34.9347 14.071 34.8317L12.4277 33.1834C12.325 33.0804 12.2223 33.0804 12.1196 33.1834L10.9898 34.3166C10.8871 34.4196 10.7844 34.4196 10.6817 34.3166L9.34645 32.8744C9.24374 32.7714 9.24374 32.6684 9.34645 32.5654L14.6873 27.2086C14.79 27.1056 14.8927 27.1056 14.9954 27.2086L16.536 28.7538C16.6387 28.8568 16.6387 28.9598 16.536 29.0628L15.4062 30.196C15.3035 30.299 15.3035 30.402 15.4062 30.5051L17.0496 32.1533C17.1523 32.2563 17.255 32.2563 17.3577 32.1533L20.1308 29.4749C20.2335 29.3719 20.3362 29.2689 20.3362 29.1659C20.3362 29.0628 20.2335 28.8568 20.2335 28.8568L20.1308 28.7538H19.8227L14.8927 23.9121C14.79 23.8091 14.6873 23.7061 14.5846 23.7061C14.4819 23.7061 14.2764 23.8091 14.2764 23.8091L14.3791 23.9121L7.39499 30.9171C7.29228 31.0201 7.18957 31.0201 7.08686 30.9171L3.69749 27.5176C3.59479 27.4146 3.59479 27.3116 3.69749 27.2086L4.92999 26.0754C5.0327 25.9724 5.0327 25.8694 4.92999 25.7664L3.28666 24.1181C3.18395 24.0151 3.08125 24.0151 2.97854 24.1181L0.102708 27.0025C0.102708 27.2086 0 27.3116 0 27.4146C0 27.5176 0.102708 27.7236 0.205416 27.7236L16.3306 43.794C16.4333 43.897 16.536 44 16.6387 44C16.6387 44 16.6387 44 16.7414 44C16.7414 44 16.7414 44 16.8441 44C16.8441 44 16.9469 43.897 17.0496 43.794L25.5743 35.2437C25.677 35.1407 25.677 35.0377 25.5743 34.9347L23.7256 33.1834Z" fill="#0C2146"/>
<path d="M28.0392 32.0504C28.1419 32.1534 28.2446 32.1534 28.3473 32.0504L34.6125 25.7665C34.7152 25.6635 34.7152 25.5604 34.6125 25.4574L32.9692 23.8092C32.8665 23.7062 32.7638 23.7062 32.6611 23.8092L26.3959 30.0931C26.2932 30.1961 26.2932 30.2991 26.3959 30.4022L28.0392 32.0504Z" fill="#0C2146"/>
<path d="M30.0937 19.9975C29.991 20.1005 29.991 20.2035 30.0937 20.3065L36.8724 27.1055C36.9752 27.2085 36.9752 27.3116 36.8724 27.4146L33.4831 30.8141C33.3804 30.9171 33.2777 30.9171 33.1749 30.8141L32.0452 29.6809C31.9425 29.5779 31.8397 29.5779 31.737 29.6809L29.991 31.2261C29.8883 31.3291 29.8883 31.4322 29.991 31.5352L31.1208 32.6683C31.2235 32.7714 31.2235 32.8744 31.1208 32.9774L29.4775 34.6256C29.3747 34.7286 29.272 34.7286 29.1693 34.6256L23.8285 29.2688C23.7258 29.1658 23.7258 29.0628 23.8285 28.9598L25.3691 27.4146C25.4718 27.3116 25.5745 27.3116 25.6773 27.4146L26.807 28.5477C26.9098 28.6508 27.0125 28.6508 27.1152 28.5477L28.7585 26.8995C28.8612 26.7965 28.8612 26.6935 28.7585 26.5905L26.0881 23.809C25.9854 23.706 25.8827 23.603 25.78 23.603C25.6773 23.603 25.6773 23.706 25.6773 23.706L25.5745 23.809L25.4718 23.9121L20.5418 28.7538C20.4391 28.8568 20.3364 28.9598 20.3364 29.0628C20.3364 29.1658 20.4391 29.3719 20.4391 29.3719L20.5418 29.4749L27.526 36.4799C27.6287 36.5829 27.6287 36.6859 27.526 36.7889L24.1366 40.1884C24.0339 40.2915 23.9312 40.2915 23.8285 40.1884L22.6987 38.9523C22.596 38.8492 22.4933 38.8492 22.3906 38.9523L20.85 40.7035C20.7473 40.8065 20.7473 40.9095 20.85 41.0126L23.7258 43.897C23.8285 44 23.9312 44.103 24.0339 44.103C24.1366 44.103 24.342 44 24.342 43.897L40.4672 27.8266C40.5699 27.7236 40.6726 27.6206 40.6726 27.5176C40.6726 27.5176 40.6726 27.5176 40.6726 27.4146C40.6726 27.4146 40.6726 27.4146 40.6726 27.3116C40.6726 27.3116 40.5699 27.2085 40.4672 27.1055L32.0452 18.4523C31.9425 18.3492 31.8397 18.3492 31.737 18.4523L30.0937 19.9975Z" fill="#0C2146"/>
<path d="M28.9636 15.6707C29.0663 15.5677 29.0663 15.4647 28.9636 15.3617L22.6984 9.18078C22.5957 9.07776 22.493 9.07776 22.3903 9.18078L20.747 10.829C20.6442 10.932 20.6442 11.035 20.747 11.1381L27.0121 17.422C27.1149 17.525 27.2176 17.525 27.3203 17.422L28.9636 15.6707Z" fill="#0C2146"/>
<path d="M16.9471 13.6106C17.0498 13.7136 17.1525 13.7136 17.2552 13.6106L24.034 6.81156C24.1367 6.70854 24.2394 6.70854 24.3421 6.81156L27.7315 10.2111C27.8342 10.3141 27.8342 10.4171 27.7315 10.5201L26.6017 11.6533C26.499 11.7563 26.499 11.8593 26.6017 11.9623L28.245 13.6106C28.3477 13.7136 28.4504 13.7136 28.5531 13.6106L29.6829 12.4774C29.7856 12.3744 29.8883 12.3744 29.991 12.4774L31.6344 14.1256C31.7371 14.2286 31.7371 14.3317 31.6344 14.4347L26.2935 19.7915C26.1908 19.8945 26.0881 19.8945 25.9854 19.7915L24.4448 18.2462C24.3421 18.1432 24.3421 18.0402 24.4448 17.9372L25.5746 16.804C25.6773 16.701 25.6773 16.598 25.5746 16.495L23.9312 14.8467C23.8285 14.7437 23.7258 14.7437 23.6231 14.8467L20.85 17.5251C20.7473 17.6281 20.6446 17.7312 20.6446 17.8342C20.6446 17.9372 20.7473 18.1432 20.7473 18.1432L20.85 18.2462L20.9527 18.3492L25.8827 23.191C25.9854 23.294 26.0881 23.397 26.1908 23.397C26.2935 23.397 26.499 23.294 26.499 23.294L26.6017 23.191L33.5858 16.1859C33.6885 16.0829 33.7912 16.0829 33.8939 16.1859L36.9752 19.4824C37.0779 19.5854 37.0779 19.6884 36.9752 19.7915L35.7427 20.9246C35.64 21.0276 35.64 21.1307 35.7427 21.2337L37.386 22.8819C37.4887 22.9849 37.5914 22.9849 37.6941 22.8819L40.57 19.9975C40.6727 19.8945 40.7754 19.7915 40.7754 19.6884C40.7754 19.5854 40.6727 19.3794 40.57 19.3794L24.4448 3.20603C24.3421 3.10302 24.2394 3 24.1367 3C24.1367 3 24.1367 3 24.034 3C24.034 3 24.034 3 23.9312 3C23.9312 3 23.8285 3.10302 23.7258 3.20603L15.2011 11.7563C15.0983 11.8593 15.0983 11.9623 15.2011 12.0653L16.9471 13.6106Z" fill="#0C2146"/>
</g>
<defs>
<clipPath id="clip0">
<rect width="151.7" height="41" fill="white" transform="translate(0 3)"/>
</clipPath>
</defs>
</svg>
