<svg width="152" height="152" viewBox="0 0 152 152" fill="none" xmlns="http://www.w3.org/2000/svg">
<g clip-path="url(#clip0)">
<path d="M9.04425 52.5562C9.27258 51.8216 9.55055 51.1068 9.83845 50.402L10.6922 48.2576C11.2283 47.0763 10.2852 45.6666 9.33214 44.098C8.86258 43.3382 8.47015 42.5334 8.1607 41.6956C7.3665 43.1648 6.73114 44.7234 6.02629 46.2324C5.53984 47.4337 6.48295 48.8235 7.50548 50.2034C8.06687 50.9549 8.58079 51.7407 9.04425 52.5562Z" fill="#1A402B"/>
<path d="M6.85997 60.1409C7.03866 59.3963 7.17765 58.6418 7.39605 57.8972L8.02148 55.6834C8.35902 54.4325 7.34641 53.1618 6.21468 51.7124C5.65003 51.0255 5.16077 50.28 4.75534 49.4886C4.44758 50.2729 4.20932 51.0671 3.93135 51.8613C3.65338 52.6555 3.38534 53.4398 3.16694 54.2539C2.81947 55.4948 3.87179 56.7556 5.06309 58.0362C5.71027 58.6951 6.31069 59.3984 6.85997 60.1409Z" fill="#1A402B"/>
<path d="M15.8841 38.3598L17.1251 36.3743L18.4653 34.498C19.1999 33.4259 18.634 31.8772 18.0582 30.1399C17.761 29.3014 17.5417 28.4374 17.403 27.5587L15.8543 29.5442L15.08 30.537L14.3553 31.5297C13.6107 32.582 14.1766 34.1109 14.9013 35.7291C15.2992 36.5781 15.6279 37.4579 15.8841 38.3598Z" fill="#1A402B"/>
<path d="M12.0422 45.2595L13.0945 43.2045L13.6206 42.2117L14.1964 41.219C14.8516 40.0872 14.0376 38.5683 13.3129 36.9303C12.9268 36.1309 12.6176 35.2965 12.3896 34.4385L11.0395 36.553L9.77869 38.7172C9.12348 39.8291 9.93753 41.3282 10.7714 42.8371C11.2551 43.6116 11.6799 44.4213 12.0422 45.2595Z" fill="#1A402B"/>
<path d="M3.52413 66.0178C4.23289 66.6025 4.8966 67.2396 5.50964 67.9239L5.79753 65.6307C5.88688 64.8762 6.05565 64.1217 6.17478 63.3672C6.21185 63.031 6.17895 62.6907 6.07815 62.3678C5.97735 62.0449 5.81083 61.7463 5.58906 61.4909C5.09877 60.8247 4.55777 60.1974 3.97087 59.6146C3.33652 58.9909 2.76156 58.3096 2.25341 57.5795C1.87617 59.2175 1.47907 60.8357 1.26066 62.5432C0.992621 63.7345 2.18392 64.8861 3.52413 66.0178Z" fill="#1A402B"/>
<path d="M3.09728 82.2792C3.93981 82.686 4.74966 83.1573 5.51959 83.6889C5.44017 82.9245 5.28133 82.17 5.2714 81.3956L5.18206 79.0924C5.18206 77.7919 3.65322 76.9282 2.10453 75.9256C1.35324 75.4542 0.648515 74.9123 -0.000100419 74.3074C-0.0894479 75.9752 -0.000100423 77.643 0.0892471 79.2711C0.178595 80.6014 1.57837 81.4552 3.09728 82.2792Z" fill="#1A402B"/>
<path d="M2.06495 89.2681C2.76801 89.6998 3.51308 90.059 4.28871 90.3402C5.153 90.6582 5.99252 91.0398 6.80037 91.4819L6.33377 89.2284C6.16859 88.4776 6.04267 87.7188 5.95653 86.955C5.79769 85.6644 4.26885 84.9695 2.64074 84.1355C1.81688 83.7526 1.03222 83.2905 0.297852 82.7556L0.913357 87.7194C0.973125 88.0487 1.10815 88.3599 1.30789 88.6285C1.50764 88.8971 1.76672 89.116 2.06495 89.2681Z" fill="#1A402B"/>
<path d="M2.8793 74.1386C3.65024 74.636 4.38054 75.1936 5.06335 75.8064L5.11299 73.4635V72.3119L5.20234 71.1603C5.32147 69.8598 3.91176 68.8373 2.5517 67.6758C1.87267 67.1389 1.24759 66.5371 0.685325 65.8789L0.367644 68.3608L0.179022 70.8625C0.0598918 72.1531 1.44974 73.1558 2.8793 74.1386Z" fill="#1A402B"/>
<path d="M57.9272 6.45291C58.3109 5.70217 58.6426 4.926 58.92 4.12987C59.2052 3.286 59.5709 2.47151 60.012 1.69763C58.3839 2.07488 56.7458 2.43227 55.1475 2.92864C54.8362 3.03327 54.5511 3.20352 54.3113 3.42789C54.0715 3.65225 53.8827 3.9255 53.7577 4.22915C53.4148 4.97702 53.152 5.75901 52.9734 6.56211C52.7693 7.45959 52.4937 8.33932 52.1494 9.1929C53.6088 8.70645 55.0482 8.20015 56.5374 7.79312C56.8474 7.6749 57.1303 7.49525 57.3692 7.26494C57.608 7.03463 57.7978 6.75842 57.9272 6.45291Z" fill="#1A402B"/>
<path d="M20.441 31.9169C21.3642 30.6859 22.4265 29.5641 23.4192 28.3927C24.3028 27.3999 23.8958 25.8115 23.5086 24.0245C23.2981 23.1661 23.1816 22.2873 23.1611 21.4037L22.2577 22.2674L21.3841 23.1708L19.6567 24.9875C18.8129 25.9803 19.2298 27.5786 19.7361 29.2365C20.0336 30.1124 20.2691 31.008 20.441 31.9169Z" fill="#1A402B"/>
<path d="M49.0419 10.3742C50.263 9.90759 50.5708 8.20999 51.0274 6.45282C51.2086 5.60108 51.4747 4.76963 51.8216 3.97095C51.0374 4.24892 50.2332 4.48718 49.4589 4.79493L47.1259 5.71819C45.9148 6.155 45.6666 7.8526 45.3688 9.56013C45.2513 10.4698 45.079 11.3716 44.8525 12.2604C45.5276 11.903 46.2424 11.6151 46.9373 11.2677C47.6322 10.9202 48.3272 10.6422 49.0419 10.3742Z" fill="#1A402B"/>
<path d="M61.9379 6.46276L64.2014 6.05573C65.4821 5.79761 66.1869 4.32834 66.9811 2.68038C67.3539 1.86987 67.8061 1.09836 68.3313 0.377197L65.8494 0.694877C65.0155 0.794152 64.1915 0.893427 63.3675 1.0622C62.0968 1.30046 61.382 2.78958 60.7963 4.42762C60.4909 5.29386 60.1226 6.13663 59.6943 6.9492C60.4389 6.80029 61.1835 6.61167 61.9379 6.46276Z" fill="#1A402B"/>
<path d="M25.6729 26.0002C26.2189 25.4541 26.7847 24.9379 27.3407 24.4118C27.8966 23.8856 28.4426 23.3396 29.0383 22.8531C30.031 22.0093 29.7531 20.2918 29.6041 18.5148C29.4968 17.6421 29.4768 16.7608 29.5446 15.884L27.5591 17.4327L25.6828 19.0608C24.69 19.8848 24.9779 21.5824 25.2956 23.28C25.484 24.1769 25.61 25.0858 25.6729 26.0002Z" fill="#1A402B"/>
<path d="M72.0536 5.17223C73.3541 5.11266 74.198 3.6831 75.1808 2.13441C75.6305 1.36433 76.1667 0.648205 76.7791 0C75.9452 0 75.1113 0 74.2774 0C73.4435 0 72.6096 0 71.7757 0.07942C70.4851 0.178695 69.6512 1.62811 68.7974 3.14702C68.4229 3.98931 67.9917 4.80524 67.5068 5.58918C68.986 5.36085 70.4851 5.31121 72.0536 5.17223Z" fill="#1A402B"/>
<path d="M31.5501 20.7286L33.3569 19.299C33.9724 18.8424 34.6077 18.4056 35.2332 17.9588C36.2259 17.1845 36.2259 15.5266 36.2259 13.7098C36.216 12.821 36.2925 11.9333 36.4543 11.0592C35.0545 11.9725 33.6051 12.8164 32.2649 13.8191C31.2721 14.5735 31.2721 16.2116 31.4111 17.9687C31.5313 18.8835 31.5778 19.8064 31.5501 20.7286Z" fill="#1A402B"/>
<path d="M43.4328 9.66945C43.5147 8.78853 43.6945 7.91948 43.9689 7.07837C43.1945 7.40598 42.45 7.79315 41.7054 8.17039C40.9608 8.54764 40.2163 8.93481 39.4816 9.33191C38.3698 9.9772 38.2407 11.645 38.1712 13.3625C38.1704 14.2893 38.104 15.2148 37.9727 16.1323C39.2434 15.2686 40.5935 14.5439 41.9437 13.7695C43.0655 13.154 43.2144 11.4961 43.4328 9.66945Z" fill="#1A402B"/>
<path d="M37.6548 135.639C36.3841 134.776 35.0439 134.021 33.8625 133.038C32.8697 132.244 31.2416 132.82 29.4944 133.386C28.6577 133.694 27.7882 133.903 26.9033 134.011C28.184 135.093 29.5341 136.076 30.8743 137.109C31.8671 137.923 33.4654 137.297 35.0836 136.602C35.9157 136.218 36.7752 135.897 37.6548 135.639Z" fill="#1A402B"/>
<path d="M31.2515 131.043C30.6399 130.582 30.0565 130.085 29.5043 129.554L27.7967 127.985C27.5297 127.777 27.2229 127.625 26.895 127.54C26.5672 127.455 26.2254 127.437 25.8907 127.489C25.059 127.552 24.2329 127.675 23.4187 127.856C22.5578 128.049 21.6798 128.155 20.7979 128.174L22.5153 129.991C23.0812 130.606 23.7364 131.132 24.3519 131.698C25.3446 132.572 26.9231 132.165 28.5711 131.698C29.4525 131.433 30.3472 131.215 31.2515 131.043Z" fill="#1A402B"/>
<path d="M25.4239 125.702C24.3815 124.57 23.2796 123.498 22.2868 122.327C21.4728 121.334 19.8049 121.533 17.9783 121.691C17.0868 121.775 16.1893 121.775 15.2979 121.691L18.4548 125.593C19.2788 126.586 20.9962 126.308 22.7038 126C23.6011 125.828 24.5107 125.729 25.4239 125.702Z" fill="#1A402B"/>
<path d="M55.3754 144.237C55.1511 144.135 54.9186 144.052 54.6805 143.988C53.4494 143.552 52.3475 144.366 50.8881 145.458C50.1874 146.016 49.4363 146.508 48.6445 146.927C48.6445 146.927 51.2952 147.92 53.3998 148.734C54.8591 149.336 56.3713 149.802 57.9168 150.124C56.5865 147.83 56.6957 144.942 55.3754 144.237Z" fill="#1A402B"/>
<path d="M22.4961 102.621V103.186H33.5851L37.715 99.0566V76.3325H37.1491V98.8282L33.3568 102.621H22.4961Z" fill="#1A402B"/>
<path d="M44.4948 139.591L40.4543 137.377C39.2928 136.791 37.8335 137.446 36.1656 138.191C35.3648 138.566 34.5305 138.865 33.6738 139.084L35.7388 140.454L36.7911 141.139C37.1385 141.368 37.5158 141.556 37.8831 141.755C39.0148 142.38 40.504 141.626 42.0129 140.762C42.8102 140.311 43.6397 139.919 44.4948 139.591Z" fill="#1A402B"/>
<path d="M51.7723 142.648L49.6379 141.874L47.5035 140.971C46.3122 140.444 44.8925 141.368 43.3041 142.321C42.5582 142.779 41.7663 143.159 40.9414 143.452L42.0334 144.058C42.4107 144.247 42.7978 144.405 43.1751 144.584L45.4584 145.577C46.6497 146.083 48.0098 145.269 49.4294 144.187C50.1692 143.614 50.9526 143.1 51.7723 142.648Z" fill="#1A402B"/>
<path d="M18.1182 91.7102V98.0341L20.8383 100.754H32.2549L34.9751 98.0341V74.3173H23.5287L21.2354 76.8786V77.5238H31.3515V97.5476H21.7516V91.7102H18.1182Z" fill="#1A402B"/>
<path d="M17.4224 119.855C18.3488 119.756 19.2812 119.726 20.212 119.765C19.238 118.581 18.3331 117.341 17.5018 116.053C16.7771 114.97 15.02 115.06 13.233 114.98C12.3556 114.974 11.481 114.881 10.6221 114.702C11.049 115.417 11.4361 116.162 11.9027 116.857L13.3224 118.922C14.057 119.984 15.705 119.954 17.4224 119.855Z" fill="#1A402B"/>
<path d="M15.6755 113.313L13.3624 109.342C12.7568 108.19 11.1287 108.011 9.32187 107.763C8.43607 107.665 7.56173 107.482 6.71094 107.217C7.43565 108.726 8.13057 110.195 8.89499 111.734C9.54028 112.846 11.218 112.995 12.9454 113.074C13.8602 113.082 14.7731 113.162 15.6755 113.313Z" fill="#1A402B"/>
<path d="M11.9128 106.373L10.9201 104.288C10.6024 103.593 10.3542 102.869 10.0763 102.154C9.60966 100.943 7.94184 100.595 6.15489 100.169C5.29113 99.9728 4.45438 99.6728 3.66309 99.275C3.79214 99.6821 3.89142 100.089 4.0304 100.476L4.47714 101.648L5.38054 103.991C5.83721 105.192 7.42561 105.549 9.20263 105.797C10.1191 105.922 11.025 106.114 11.9128 106.373Z" fill="#1A402B"/>
<path d="M28.8994 79.4299H22.8535V79.9958H28.8994V79.4299Z" fill="#1A402B"/>
<path d="M24.6997 92.9512H24.1338V95.304H24.6997V92.9512Z" fill="#1A402B"/>
<path d="M8.9344 99.0765C8.44796 97.6271 8.05086 96.0982 7.60412 94.6687C7.36083 94.0357 6.87993 93.5227 6.26391 93.2391C5.53077 92.8473 4.76718 92.5153 3.98058 92.2464C3.14495 91.9479 2.34035 91.5689 1.57812 91.1146C1.94544 92.7527 2.19363 94.4106 2.71979 95.999C3.08711 97.2399 4.70529 97.7561 6.3334 98.2227C7.21763 98.4519 8.08639 98.737 8.9344 99.0765Z" fill="#1A402B"/>
<path d="M129.882 96.1181V91.9684H124.67V92.5343H129.316V96.1181H129.882Z" fill="#1A402B"/>
<path d="M115.348 79.9065V99.0567L119.477 103.187H131.48V102.621H119.706L115.923 98.8283V79.9065H115.348Z" fill="#1A402B"/>
<path d="M112.549 136.821C112.221 137.019 111.874 137.188 111.556 137.377C110.414 138.002 110.315 139.69 110.136 141.507C110.077 142.403 109.927 143.291 109.689 144.157C111.169 143.373 112.668 142.559 114.097 141.755C115.249 141.169 115.279 139.412 115.298 137.685C115.273 136.762 115.322 135.839 115.447 134.925L113.521 136.185L112.549 136.821Z" fill="#1A402B"/>
<path d="M121.761 130.199C120.579 131.192 119.338 132.085 118.137 133.038C117.144 133.862 117.144 135.491 117.144 137.297C117.174 138.184 117.117 139.072 116.976 139.948L119.07 138.568C119.418 138.34 119.775 138.121 120.063 137.873L121.056 137.109C122.049 136.324 121.979 134.657 121.81 132.939C121.739 132.028 121.723 131.113 121.761 130.199Z" fill="#1A402B"/>
<path d="M127.469 124.749L125.891 126.417C125.375 126.983 124.759 127.41 124.203 127.985C123.21 128.859 123.528 130.537 123.756 132.363C123.898 133.236 123.938 134.122 123.875 135.004C124.203 134.736 124.551 134.498 124.868 134.22L125.801 133.386L127.658 131.698C127.888 131.466 128.066 131.187 128.181 130.881C128.296 130.575 128.344 130.248 128.323 129.921C128.289 129.096 128.166 128.278 127.956 127.479C127.726 126.582 127.564 125.67 127.469 124.749Z" fill="#1A402B"/>
<path d="M95.3043 147.672C95.14 148.536 94.8872 149.381 94.5498 150.193L96.9126 149.349L98.6499 148.585C99.8709 148.158 100.318 146.53 100.715 144.842C100.904 143.944 101.159 143.062 101.479 142.202L97.1409 143.75C95.9297 144.276 95.7014 145.934 95.3043 147.672Z" fill="#1A402B"/>
<path d="M135.521 98.0341V86.9252H124.72V90.102H131.897V97.6966H121.463V77.375H135.302V76.7495L132.691 74.3074H120.56L117.84 77.0275V98.0341L120.56 100.754H132.801L135.521 98.0341Z" fill="#1A402B"/>
<path d="M133.157 79.4299H124.044V79.9958H133.157V79.4299Z" fill="#1A402B"/>
<path d="M106.601 139.978L104.497 140.97C103.305 141.497 103.057 143.234 102.64 144.941C102.475 145.805 102.222 146.65 101.886 147.463L104.239 146.619L106.532 145.626C107.713 145.1 107.991 143.462 108.21 141.765C108.304 140.84 108.454 139.922 108.656 139.015L107.664 139.571C107.306 139.69 106.949 139.829 106.601 139.978Z" fill="#1A402B"/>
<path d="M147.305 92.2563C146.64 91.6165 146.026 90.9261 145.468 90.1914C145.197 91.7015 144.846 93.1961 144.416 94.6687C144.048 95.9196 145.17 97.1903 146.332 98.6397C146.922 99.3094 147.431 100.046 147.851 100.834C148.397 99.2552 148.843 97.6271 149.3 96.0288C149.378 95.7107 149.384 95.3793 149.319 95.0584C149.254 94.7375 149.118 94.4349 148.923 94.1723C148.449 93.4811 147.907 92.8392 147.305 92.2563Z" fill="#1A402B"/>
<path d="M132.602 118.753L129.703 122.327C128.879 123.319 129.276 124.898 129.703 126.675C129.93 127.536 130.073 128.417 130.13 129.306C131.262 128.085 132.453 126.913 133.545 125.642C134.359 124.65 133.882 123.022 133.336 121.384C133.023 120.527 132.777 119.648 132.602 118.753Z" fill="#1A402B"/>
<path d="M149.16 76.1043C148.378 75.6084 147.631 75.0577 146.927 74.4563C147.006 75.9851 146.927 77.5239 146.837 79.0527C146.768 80.3532 148.207 81.3559 149.617 82.4777C150.311 83.0117 150.949 83.6137 151.523 84.2746C151.613 83.4407 151.771 82.6167 151.791 81.7828L151.89 79.2711C151.89 78.0302 150.58 77.0573 149.16 76.1043Z" fill="#1A402B"/>
<path d="M79.9457 5.17219C81.2462 5.27147 82.2489 3.9114 83.4005 2.48184C83.9388 1.78556 84.5476 1.1468 85.2172 0.575761C83.5593 0.327573 81.8915 0.258081 80.2535 0.119096C78.9629 0.0496031 77.9801 1.42953 77.0072 2.85909C76.5129 3.63393 75.9656 4.37364 75.3691 5.07292C76.8781 5.05306 78.4268 5.12256 79.9457 5.17219Z" fill="#1A402B"/>
<path d="M137 112.181C136.602 112.836 136.255 113.521 135.828 114.166L134.518 116.062C133.773 117.135 134.448 118.723 135.064 120.44C135.37 121.26 135.593 122.108 135.729 122.972C136.245 122.307 136.821 121.701 137.268 120.986L138.697 118.922C139.412 117.849 138.826 116.34 138.082 114.752C137.657 113.923 137.295 113.064 137 112.181Z" fill="#1A402B"/>
<path d="M143.493 97.8356C143.281 98.5704 143.029 99.2929 142.738 99.9998L141.964 102.154C141.86 102.482 141.826 102.828 141.863 103.17C141.901 103.512 142.01 103.842 142.182 104.14C142.554 104.889 142.972 105.615 143.433 106.314C143.919 107.049 144.331 107.831 144.664 108.647L145.746 106.383C146.094 105.629 146.362 104.825 146.669 104.05C147.136 102.849 146.173 101.489 145.141 100.079C144.549 99.3635 143.998 98.6144 143.493 97.8356Z" fill="#1A402B"/>
<path d="M140.643 105.232C139.968 106.602 139.343 108.011 138.658 109.371C138.012 110.493 138.807 111.972 139.651 113.61C140.056 114.406 140.389 115.236 140.643 116.092L143.155 111.754C143.751 110.612 142.897 109.123 142.003 107.644C141.486 106.877 141.032 106.071 140.643 105.232Z" fill="#1A402B"/>
<path d="M148.654 84.2348C147.947 83.6701 147.283 83.0528 146.669 82.3883L146.103 86.955C146.065 87.6248 146.281 88.2843 146.709 88.8015C147.227 89.4588 147.795 90.0761 148.406 90.648C149.051 91.2521 149.636 91.917 150.153 92.6335L150.66 90.1814C150.857 89.367 151.007 88.5415 151.106 87.7094C151.245 86.4487 149.985 85.3765 148.654 84.2348Z" fill="#1A402B"/>
<path d="M80.0757 134.021V128.462H105.49V124.392L80.0757 120.947V108.21H87.8886C102.909 108.21 108.27 99.9501 108.27 92.2166C108.27 85.5453 105.113 80.6907 99.1166 78.0302C101.091 76.7815 102.713 75.0469 103.825 72.9923C104.937 70.9377 105.504 68.632 105.47 66.2959C105.47 56.3683 98.4515 50.67 86.2208 50.67H81.7534L80.0757 55.6337V29.6336C84.2253 30.8249 88.385 32.0956 92.4552 33.5053C97.7607 35.3831 102.882 37.7459 107.754 40.5638C110.183 42.0627 112.417 43.8567 114.405 45.9048C116.559 47.9895 118.664 50.2034 120.699 52.5065C122.158 54.1446 123.578 55.8521 125.008 57.5497L118.455 62.3348V63.2183H136.325C132.781 58.2546 129.137 53.3901 125.236 48.6547C123.25 46.2026 121.136 43.8101 118.892 41.4672C116.607 38.96 114.019 36.7458 111.188 34.8753C105.49 31.4106 100.933 28.4423 95.0265 26.1093C89.1196 23.7764 83.1432 21.7511 77.0378 19.855L75.9359 19.5175L74.8538 19.855C68.7384 21.7412 62.8217 23.826 56.8949 26.0994C50.9682 28.3728 46.4313 31.4106 40.7032 34.8753C37.8775 36.7443 35.2963 38.9587 33.0193 41.4672C30.7757 43.8101 28.7008 46.2026 26.6955 48.6448C22.794 53.3802 19.1506 58.2149 15.6064 63.2084H33.476V62.3248L26.894 57.5795C28.3136 55.8819 29.7234 54.1843 31.1827 52.5562C33.2178 50.253 35.3225 48.0392 37.4767 45.9445C39.4723 43.9045 41.7054 42.1114 44.1282 40.6035C49.0047 37.791 54.1289 35.4316 59.4364 33.5549C63.4967 32.1452 67.6563 30.8745 71.806 29.6832V50.6898H43.6814V54.7799L51.0873 57.649V101.261L43.5325 104.298V108.269H70.4857L71.8557 103.157V121.026L46.4413 124.471V128.541H71.8557V134.021C69.9247 134.957 68.3683 136.52 67.4409 138.455C66.5135 140.39 66.27 142.583 66.7501 144.674C67.2301 146.765 68.4055 148.632 70.0839 149.969C71.7624 151.306 73.8447 152.034 75.9905 152.034C78.1363 152.034 80.2186 151.306 81.897 149.969C83.5755 148.632 84.7508 146.765 85.2309 144.674C85.711 142.583 85.4674 140.39 84.54 138.455C83.6126 136.52 82.0562 134.957 80.1253 134.021H80.0757ZM103.822 125.732H103.981V126.347L103.356 126.973H102.561L103.822 125.732ZM101.539 125.424L102.244 125.513L100.774 126.993H99.9704L101.539 125.424ZM99.9704 125.206L98.1834 126.993H97.3892L99.2754 125.087L99.9704 125.206ZM97.6374 124.957L95.6519 126.943H94.8478L96.8829 124.957H97.6374ZM95.0463 124.957L93.0608 126.943H92.2567L94.3018 124.957H95.0463ZM92.4652 124.957L90.4201 126.943H89.6259L91.6114 124.957H92.4652ZM89.8741 124.957L87.8886 126.943H87.0845L89.07 124.957H89.8741ZM87.283 124.957L85.2975 126.943H84.4934L86.5385 124.957H87.283ZM84.7019 124.957L82.7164 126.943H81.9122L83.9474 124.957H84.7019ZM81.535 124.957H82.1108L81.535 125.533V124.957ZM123.826 61.7391L125.812 59.7536H126.616L124.63 61.7391H123.826ZM132.93 61.203L132.394 61.7391H131.589L132.582 60.7464L132.93 61.203ZM131.808 59.704L129.822 61.6895H129.018L131.063 59.704H131.808ZM127.211 61.6895H126.417L128.403 59.704H129.207L127.211 61.6895ZM128.482 55.2565L126.626 57.1129L126.258 56.6761L128.125 54.8097C128.244 54.9686 128.363 55.1076 128.482 55.2664V55.2565ZM127.34 53.8071L125.434 55.7131L125.067 55.2763L126.983 53.3603L127.34 53.8071ZM125.841 51.9109C125.961 52.0598 126.08 52.2187 126.199 52.3576L124.213 54.3431L123.846 53.9163L125.841 51.9109ZM125.057 50.9181L123.072 52.9037L122.704 52.4668L124.69 50.4813C124.819 50.6303 124.938 50.7792 125.087 50.9281L125.057 50.9181ZM123.916 49.4787L121.861 51.5237L121.503 51.1366L123.578 49.0716L123.916 49.4787ZM122.724 48.0789L120.62 50.1736L120.242 49.7566L122.357 47.652L122.724 48.0789ZM121.533 46.6593L119.389 48.8036C119.26 48.6745 119.13 48.5256 119.001 48.3866L121.166 46.2224L121.533 46.6593ZM120.322 45.2793L118.138 47.5031C118.009 47.3641 117.87 47.245 117.741 47.106L119.945 44.8922L120.322 45.2793ZM119.13 43.959L116.887 46.2026L116.49 45.8055L118.753 43.542L119.13 43.959ZM117.492 42.2117L117.81 42.5294L117.899 42.6088L115.606 44.9021L115.507 44.8127L115.189 44.5149L117.492 42.2117ZM116.589 41.3381L114.226 43.681L113.809 43.2938L116.152 40.941C116.271 41.0701 116.41 41.1991 116.539 41.3381H116.589ZM115.279 40.0575L112.906 42.4301L112.479 42.0628L114.822 39.71L115.279 40.0575ZM113.919 38.8364L111.486 41.2587L111.03 40.9112L113.442 38.5088L113.919 38.8364ZM111.933 37.4664C112.092 37.5557 112.241 37.6848 112.41 37.7841L110.027 40.1667L109.54 39.8589L111.933 37.4664ZM110.801 36.8012L108.439 39.164L107.922 38.886L110.196 36.5133L110.801 36.8012ZM109.133 35.8879L106.761 38.2606L106.245 37.9727L108.607 35.6099L109.133 35.8879ZM107.436 34.9944L105.083 37.3473L104.557 37.0792L106.82 34.7462L107.436 34.9944ZM105.708 34.1307L103.246 36.4836L102.71 36.2155L105.053 33.8726L105.708 34.1307ZM103.971 33.2869L101.638 35.6199L101.092 35.3618L103.415 33.0387L103.971 33.2869ZM102.174 32.4927L99.8512 34.8157L99.2953 34.5676L101.618 32.2445L102.174 32.4927ZM100.377 31.6985L98.0544 34.0215L97.419 33.7535L99.7222 31.4503L100.377 31.6985ZM98.511 30.9837L96.2178 33.277L95.632 33.0586L97.8459 30.7752L98.511 30.9837ZM96.0589 30.0505L96.6347 30.2789L94.3117 32.5721L93.726 32.3537L96.0589 30.0505ZM94.7187 29.6038L92.3262 31.8772L91.7305 31.6786L94.0039 29.4053L94.7187 29.6038ZM92.7332 28.9585L90.4598 31.222L89.8542 31.0234L92.0879 28.7897L92.7332 28.9585ZM90.7477 28.3331L88.4842 30.5965L87.8787 30.398L90.1421 28.1345L90.7477 28.3331ZM88.7622 27.7176L86.5087 29.9711L85.8932 29.7825L88.1566 27.529L88.7622 27.7176ZM86.7767 27.112L84.5132 29.3655L83.8977 29.1868L86.1513 26.9333L86.7767 27.112ZM84.7912 26.5263L82.5277 28.7897L81.9122 28.6011L84.1658 26.3476L84.7912 26.5263ZM81.5449 26.3873L82.1703 25.7619L82.7958 25.9406L81.5449 27.1815V26.3873ZM18.545 61.6994C19.3293 60.6173 20.0937 59.6246 20.868 58.5921L26.7352 52.725C25.9112 53.7872 25.0773 54.909 24.2434 56.011L18.5549 61.6994H18.545ZM21.146 61.6994H20.3419L22.3869 59.7139H23.1811L21.146 61.6994ZM22.9329 61.6994L24.9184 59.7139H25.8119L23.7768 61.6994H22.9329ZM28.8894 60.8854L29.3461 61.2229L28.8696 61.6994H28.0655L28.8894 60.8854ZM27.3904 59.7933L27.857 60.1309L26.2785 61.6994H25.4843L27.3904 59.7933ZM49.2309 36.1361C48.6948 36.3942 48.1687 36.6523 47.6425 36.9303L48.6353 35.9375C49.2011 35.6397 49.7769 35.322 50.3428 35.0341L49.2309 36.1361ZM53.9961 33.962C53.5097 34.1605 53.0033 34.3789 52.5665 34.5874L53.867 33.2869C54.3336 33.0685 54.8598 32.8699 55.2966 32.6515L53.9961 33.962ZM58.2252 32.3239L56.9346 32.8104L58.394 31.3411L59.6846 30.8547L58.2252 32.3239ZM62.1962 30.9738L60.995 31.3709L62.5933 29.7825L63.7945 29.3655L62.1962 30.9738ZM66.0084 29.7825L64.8568 30.1399L66.4551 28.5416L67.6266 28.1643L66.0084 29.7825ZM69.7014 28.6805L68.5697 29.0081L70.2077 27.3701L71.3494 27.0326L69.7014 28.6805ZM80.3536 136.225C80.5319 136.31 80.7043 136.406 80.8699 136.513L78.4972 138.876C78.3446 138.761 78.1855 138.655 78.0207 138.558L80.3536 136.225ZM76.2933 85.9523V86.7564L73.315 89.7347V88.9405L76.2933 85.9523ZM73.315 87.1436V86.3693L74.6155 85.0787H75.4494L73.315 87.1436ZM77.9115 136.076C78.2142 136.003 78.5235 135.96 78.8347 135.947L76.6606 138.121C76.4435 138.057 76.2207 138.014 75.9954 137.992L77.9115 136.076ZM75.5785 133.237L76.2933 132.522V132.89L75.5785 133.237ZM76.2933 88.5632V89.3475L73.315 92.3258V91.5216L76.2933 88.5632ZM76.2933 91.1444V91.9485L73.315 94.9268V94.1326L76.2933 91.1444ZM76.2933 93.7355V94.5396L73.315 97.5179V96.7137L76.2933 93.7355ZM76.2933 96.3265V97.1208L73.315 100.099V99.275L76.2933 96.3265ZM76.2933 98.9077V99.7118L73.315 102.69V101.896L76.2933 98.9077ZM76.2933 101.499V102.293L73.315 105.271V104.467L76.2933 101.499ZM76.2933 104.08V104.884L73.315 107.862V107.058L76.2933 104.08ZM76.2933 106.671V107.475L73.315 110.453V109.659L76.2933 106.671ZM76.2933 109.262V110.056L73.315 113.035V112.181L76.2933 109.262ZM76.2933 111.843V112.647L73.315 115.626V114.831L76.2933 111.843ZM76.2933 114.434V115.229L73.315 118.207V117.403L76.2933 114.434ZM76.2933 117.015V117.82L73.4639 120.609H73.2952V119.954L76.2933 117.015ZM76.2933 119.607V120.252L75.5487 120.351L76.2933 119.607ZM76.1344 124.938H76.2933V125.583L73.315 128.561V127.767L76.1344 124.938ZM76.2933 127.37V128.164L73.315 131.142V130.338L76.2933 127.37ZM76.2933 129.951V130.755L73.315 133.733V132.929L76.2933 129.951ZM75.9359 139.511C76.5249 139.511 77.1007 139.686 77.5905 140.013C78.0803 140.34 78.462 140.805 78.6874 141.35C78.9128 141.894 78.9718 142.493 78.8569 143.07C78.742 143.648 78.4583 144.179 78.0418 144.595C77.6253 145.012 77.0946 145.296 76.5169 145.41C75.9392 145.525 75.3404 145.466 74.7962 145.241C74.2519 145.016 73.7868 144.634 73.4596 144.144C73.1323 143.654 72.9576 143.078 72.9576 142.489C72.955 142.097 73.0301 141.707 73.1786 141.344C73.3271 140.98 73.5461 140.649 73.8229 140.371C74.0997 140.092 74.4289 139.871 74.7915 139.72C75.1542 139.569 75.5431 139.491 75.9359 139.491V139.511ZM81.535 106.75V106.621L83.4411 104.715H84.2353L82.2498 106.701L81.535 106.75ZM83.9871 106.75L86.0222 104.765H86.8264L84.8409 106.75H83.9871ZM87.3823 106.75H86.5782L88.6133 104.765H89.4174L87.3823 106.75ZM89.209 106.75L91.1945 104.765C91.4824 104.765 91.7504 104.765 92.0284 104.765L90.0429 106.75C89.7748 106.661 89.4869 106.661 89.209 106.671V106.75ZM92.9318 106.413C92.6339 106.413 92.3163 106.492 92.0085 106.532L93.9444 104.606L94.8478 104.507L92.9318 106.413ZM96.3071 105.629C95.9398 105.738 95.5725 105.847 95.1853 105.946L96.9822 104.149C97.3396 104.08 97.687 103.991 97.9749 103.901L96.3071 105.629ZM101.509 103.008C100.83 103.526 100.106 103.981 99.3449 104.368L100.685 103.038C101.182 102.829 101.678 102.621 102.135 102.382L101.509 103.008ZM104.09 92.6732L100.626 96.1379C100.777 95.7527 100.903 95.3581 101.003 94.9566L104.299 91.6606C104.239 91.9287 104.17 92.2662 104.09 92.5938V92.6732ZM104.388 89.7843L101.41 92.7626C101.41 92.5144 101.479 92.296 101.479 92.0478C101.479 91.9982 101.479 91.9585 101.479 91.9088L104.368 89.0199C104.338 89.2284 104.388 89.4468 104.388 89.7049V89.7843ZM104.13 87.362L101.261 90.241C101.261 90.0127 101.261 89.7446 101.182 89.5163L103.931 86.7763C103.991 86.9848 104.09 87.1635 104.13 87.362ZM103.475 85.4361L100.735 88.1761C100.665 87.9775 100.616 87.769 100.536 87.5804L103.246 84.9199C103.296 85.0886 103.385 85.2673 103.475 85.446V85.4361ZM102.482 83.8278L99.881 86.4288L99.5633 85.9424L102.174 83.391C102.288 83.5341 102.394 83.6833 102.492 83.8377L102.482 83.8278ZM101.261 82.4777L98.7791 84.9695C98.65 84.8305 98.5011 84.7114 98.3621 84.5823L100.844 82.0905L101.261 82.4777ZM99.2754 81.0481L99.7917 81.336L97.3991 83.7285C97.2395 83.6199 97.0738 83.5204 96.9028 83.4307L99.2754 81.0481ZM65.4028 78.735H66.2069L64.2214 80.7205H63.4173L65.4028 78.735ZM61.5807 80.7205H60.7964L62.7819 78.735H63.5761L61.5807 80.7205ZM67.9939 78.735H68.7881L66.7529 80.7205H65.9488L67.9939 78.735ZM70.575 78.735H71.3792L69.344 80.7205H68.5002L70.575 78.735ZM73.1661 78.735H73.9702L71.9252 80.7205H71.131L73.1661 78.735ZM76.2933 31.629V32.4232L73.315 35.4015V34.5973L76.2933 31.629ZM73.315 32.8104V32.0162L76.2933 29.0379V29.8421L73.315 32.8104ZM76.2933 34.2102V35.0143L73.315 37.9925V37.1983L76.2933 34.2102ZM76.2933 36.8012V37.6054L73.315 40.5836V39.7894L76.2933 36.8012ZM76.2933 39.3923V40.1865L73.315 43.1648V42.3606L76.2933 39.3923ZM76.2933 41.9735V42.7776L73.315 45.7558V44.9616L76.2933 41.9735ZM76.2933 44.5645V45.3587L73.315 48.337V47.5329L76.2933 44.5645ZM76.2933 47.1457V47.9498L74.0695 50.1736H73.315L76.2933 47.1457ZM73.315 71.617V70.8228L76.2933 67.8445V68.6487L73.315 71.617ZM76.2933 70.4356V71.2298L73.315 74.2081V73.4039L76.2933 70.4356ZM73.315 69.0358V68.2317L76.2933 65.2535V66.0477L73.315 69.0358ZM73.315 66.4448V65.6506L76.2933 62.6723V63.4764L73.315 66.4448ZM73.315 63.8636V63.0595L76.2933 60.0812V60.8854L73.315 63.8636ZM73.315 61.2725V60.4684L76.2933 57.4902V58.2844L73.315 61.2725ZM73.315 58.6815V57.8873L76.2933 54.909V55.7131L73.315 58.6815ZM75.8565 50.1736L76.2933 49.7368V50.1736H75.8565ZM74.3673 54.2439H75.1715L73.186 56.2889H72.3818L74.3673 54.2439ZM75.7572 78.735H76.5514L74.5659 80.7205H73.7618L75.7572 78.735ZM78.3383 78.735H79.1425L77.157 80.7205H76.3528L78.3383 78.735ZM80.9294 78.735H81.7236L79.7381 80.7205H78.934L80.9294 78.735ZM83.5106 78.735H84.3147L82.2796 80.7205H81.4754L83.5106 78.735ZM86.1016 78.735H86.8958L84.9103 80.7205H84.1161L86.1016 78.735ZM88.6828 78.735H89.0501H89.4671L87.3624 80.8396H86.598L88.6828 78.735ZM91.1547 78.8541C91.4129 78.8541 91.671 78.8541 91.9192 78.8541L89.7947 81.0084L89.07 80.9389L91.1547 78.8541ZM93.4877 79.1023L94.1727 79.2314L91.9887 81.4055L91.3334 81.2864L93.4877 79.1023ZM95.6618 79.5193C95.8802 79.5788 96.049 79.6682 96.2575 79.7278L93.9742 82.0111C93.7756 81.9416 93.587 81.8622 93.3785 81.8026L95.6618 79.5193ZM97.5778 80.1944C97.7665 80.2638 97.9948 80.3135 98.1735 80.3929L95.8008 82.7755C95.6221 82.6862 95.4732 82.567 95.2945 82.4777L97.5778 80.1944ZM97.6771 72.3218L100.119 69.8797C99.9097 70.4373 99.5835 70.9436 99.1623 71.3648C98.7411 71.786 98.2347 72.1123 97.6771 72.3218ZM101.261 66.9213L97.9253 70.2569C98.0668 69.8871 98.1861 69.5092 98.2827 69.1252L101.4 65.998C101.37 66.308 101.323 66.6161 101.261 66.9213ZM101.549 64.0423L98.5706 67.0206C98.5706 66.8518 98.6202 66.7029 98.6202 66.5242C98.6202 66.3455 98.6202 66.3058 98.6202 66.1966L101.539 63.2779C101.57 63.5315 101.587 63.7868 101.589 64.0423H101.549ZM101.261 61.7491L98.4912 64.5288C98.4912 64.3104 98.3919 64.0919 98.3522 63.8636L101.162 61.0641C101.261 61.3023 101.261 61.5505 101.261 61.7491ZM100.616 59.7636L97.9551 62.5433C97.8856 62.3546 97.7962 62.166 97.7168 61.9774L100.417 59.287C100.516 59.426 100.566 59.6246 100.655 59.8132L100.616 59.7636ZM99.6229 58.1454L97.0418 60.7365C96.9407 60.573 96.8279 60.417 96.7042 60.2699L99.2953 57.6887C99.474 57.8773 99.5534 58.0461 99.6725 58.195L99.6229 58.1454ZM98.3423 56.8449L95.8802 59.3069C95.7512 59.1778 95.5923 59.0686 95.4434 58.9396L97.9054 56.4776C98.1139 56.6463 98.2827 56.7754 98.3919 56.8945L98.3423 56.8449ZM96.7836 55.8521L94.4408 58.195C94.2819 58.0957 94.0734 58.0262 93.9047 57.9369L96.2972 55.594C96.4858 55.6833 96.6645 55.7727 96.8333 55.862L96.7836 55.8521ZM94.9768 55.0678L92.7034 57.3512L92.1177 57.1328L94.3415 54.909C94.5996 54.9785 94.8379 55.0182 95.0265 55.0778L94.9768 55.0678ZM92.9615 54.6013L90.7378 56.7853C90.5194 56.7853 90.3308 56.6761 90.0925 56.6265L92.2567 54.4623L92.9615 54.6013ZM90.5889 54.3828L88.4942 56.4875H87.7496L89.8443 54.3828H90.5889ZM87.3029 54.2836H88.107L86.1215 56.3286H85.3174L87.3029 54.2836ZM85.5159 54.2836L83.5304 56.3286H82.7263L84.7714 54.2836H85.5159ZM82.1505 54.2836H82.9348L81.7633 55.455L82.1505 54.2836ZM80.0757 73.4635V57.7979H86.2208C93.5671 57.7979 97.141 60.7762 97.141 66.5341C97.141 71.9545 92.9814 75.3497 86.0024 75.3497H74.546L80.0757 73.4635ZM76.2933 26.4469V27.251L73.315 30.2292V29.4251L76.2933 26.4469ZM73.8809 26.2781L74.3673 26.1391L75.0027 25.9505L73.315 27.6382L72.223 27.9558L73.8809 26.2781ZM72.5804 54.2439L70.5949 56.2889H69.7908L71.8358 54.2439H72.5804ZM69.9992 54.2439L67.9542 56.2889H67.16L69.1455 54.2439H69.9992ZM67.4082 54.2439L65.373 56.2889H64.5292L66.5147 54.2439H67.4082ZM64.8171 54.2439L62.7819 56.2889H61.9877L63.9732 54.2439H64.8171ZM60.7964 54.8792L61.4318 54.2439H62.2359L60.7964 55.6833V54.8792ZM59.3371 57.7979H71.806V75.3497H59.3371V57.7979ZM52.6162 100.109V99.275L55.5944 96.2968V97.1009L52.6162 100.109ZM55.5944 98.9276V99.7217L54.701 100.615L53.3607 101.151L55.5944 98.9276ZM52.6162 97.5278V96.7237L55.5944 93.7454V94.5495L52.6162 97.5278ZM52.6162 94.9367V94.1326L55.5944 91.1543V91.9485L52.6162 94.9367ZM52.6162 92.3258V91.5316L55.5944 88.5533V89.3475L52.6162 92.3258ZM52.6162 89.7446V88.9405L55.5944 85.9622V86.7564L52.6162 89.7446ZM52.6162 87.1535V86.3693L55.5944 83.391V84.1951L52.6162 87.1535ZM52.6162 84.5724V83.7881L55.5944 80.8099V81.614L52.6162 84.5724ZM52.6162 81.9813V81.1772L55.5944 78.1989V78.9931L52.6162 81.9813ZM52.6162 79.42V78.6258L55.5944 75.6476V76.4418L52.6162 79.42ZM52.6162 76.8389V76.0347L55.5944 73.0565V73.8507L52.6162 76.8389ZM52.6162 74.2478V73.4635L55.5944 70.4853V71.2894L52.6162 74.2478ZM52.6162 71.6666V70.8625L55.5944 67.8843V68.6884L52.6162 71.6666ZM52.6162 69.0756V68.2714L55.5944 65.2932V66.0874L52.6162 69.0756ZM52.6162 66.5143V65.7201L55.5944 62.7418V63.536L52.6162 66.5143ZM52.6162 63.9331V63.129L55.5944 60.1507V60.9449L52.6162 63.9331ZM52.6162 61.342V60.5578L55.5944 57.5795V58.3836L52.6162 61.342ZM52.6162 58.7609V57.9567L55.5944 54.9785V55.7826L52.6162 58.7609ZM54.6017 54.224L52.2985 56.5173L51.6234 56.2591L53.9167 53.956L54.6017 54.224ZM45.24 52.4271L45.4287 52.2484H46.2229L45.2301 53.2412L45.24 52.4271ZM46.1335 54.1247L48.0098 52.2484H48.8139L46.6597 54.3134L46.1335 54.1247ZM47.99 54.8494L50.2336 52.5165L50.8094 52.7349L48.5062 55.0381L47.99 54.8494ZM50.4321 55.8422L49.8563 55.6139L52.1595 53.3107L52.7353 53.539L50.4321 55.8422ZM45.24 106.79L47.6524 104.388L48.0694 104.219V104.755L46.0839 106.741L45.24 106.79ZM47.8311 106.79L49.8663 104.805H50.6307L48.6452 106.79H47.8311ZM50.4222 106.79L52.4573 104.805H53.2515L51.266 106.79H50.4222ZM53.0033 106.79L55.0385 104.805H55.8426L53.8571 106.79H53.0033ZM55.5944 106.79L57.6296 104.805H58.4238L56.4383 106.79H55.5944ZM58.1756 106.79L60.2107 104.805H61.0148L59.0293 106.79H58.1756ZM60.7667 106.79L62.8018 104.805H63.5364L61.4914 106.79H60.7667ZM63.3478 106.79L65.3929 104.805H66.1871L64.2016 106.79H63.3478ZM65.9389 106.79L67.9244 104.805H68.7285L66.743 106.79H65.9389ZM69.344 106.79H68.5002L69.6021 105.688L69.344 106.79ZM59.4165 101.211V82.3486H86.0719C92.3957 82.3486 99.9704 84.1753 99.9704 92.0676C99.9704 97.6668 95.4732 101.181 87.9283 101.181H80.0757V83.53H71.806V101.122L59.4165 101.211ZM49.1118 127.022H48.3076L49.7968 125.533L50.72 125.414L49.1118 127.022ZM50.8987 127.022L52.7849 125.136L53.7181 125.007L51.7326 126.993L50.8987 127.022ZM53.4898 127.022L55.5249 125.037H56.3191L54.3336 127.022H53.4898ZM56.0709 127.022L58.1061 125.037H58.9102L56.9247 127.022H56.0709ZM58.662 127.022L60.6972 125.037H61.5013L59.4562 127.022H58.662ZM61.2432 127.022L63.2882 125.037H64.0824L62.0969 127.022H61.2432ZM63.8343 127.022L65.8198 125.037H66.6239L64.6384 127.022H63.8343ZM66.4253 127.022L68.4108 125.037H69.215L67.1699 127.022H66.4253ZM69.0065 127.022L70.992 125.037H71.7961L69.761 127.022H69.0065ZM71.5976 127.022L73.5831 125.037H74.3773L72.3918 127.022H71.5976ZM68.3215 140.633L71.7961 137C71.5875 137.421 71.4148 137.859 71.2799 138.31L68.113 141.477C68.1527 141.189 68.1726 140.871 68.2421 140.563L68.3215 140.633ZM68.1428 143.403L71.0317 140.514C71.0462 140.754 71.076 140.993 71.121 141.229L68.2222 144.127C68.0932 143.83 68.0932 143.581 68.0634 143.333L68.1428 143.403ZM68.9072 146.034C68.8179 145.855 68.7186 145.686 68.6392 145.497L71.4089 142.728C71.4685 142.926 71.538 143.125 71.6174 143.323L68.9072 146.034ZM69.5624 147.155L72.1436 144.574C72.2276 144.753 72.3238 144.925 72.4315 145.09L69.9297 147.592C69.7698 147.436 69.6237 147.267 69.4929 147.086L69.5624 147.155ZM70.8034 148.506L73.2157 145.934C73.3448 146.073 73.5036 146.182 73.6426 146.312L71.1608 148.783C71.0118 148.684 70.8729 148.555 70.7239 148.436L70.8034 148.506ZM72.3421 149.558L74.7247 147.165C74.8935 147.274 75.0623 147.364 75.241 147.463L72.8584 149.836C72.6002 149.687 72.4712 149.578 72.2627 149.488L72.3421 149.558ZM74.9034 150.382C74.6751 150.382 74.4368 150.322 74.2184 150.273L76.4422 147.92C76.6405 147.996 76.8426 148.063 77.0478 148.118L74.9034 150.382ZM77.5441 150.382C77.2449 150.43 76.9434 150.463 76.6407 150.481L78.6262 148.496C78.7454 148.496 78.8546 148.496 78.9737 148.496C79.1301 148.489 79.286 148.472 79.4403 148.446L77.5441 150.382ZM81.942 137.416C82.0711 137.555 82.1902 137.704 82.3093 137.853L79.8175 140.345C79.7233 140.179 79.6171 140.02 79.4999 139.869L81.942 137.416ZM83.1234 142.211L80.85 144.485C80.5122 144.655 80.1557 144.785 79.7878 144.872L79.897 144.634L83.3617 141.169C83.2931 141.488 83.1864 141.798 83.044 142.092L83.1234 142.211ZM83.2624 139.471L80.4132 142.182C80.3832 141.957 80.3367 141.735 80.2742 141.517L82.9447 138.836C82.9943 138.985 83.1035 139.174 83.183 139.352L83.2624 139.471Z" fill="#1A402B"/>
<path d="M125.385 25.0967C125.941 25.6129 126.487 26.159 127.003 26.7248L128.591 28.3926C129.445 29.3854 131.113 29.1174 132.94 28.9089C133.811 28.7888 134.693 28.7622 135.57 28.8295C134.578 27.4892 133.426 26.2682 132.344 24.9875C131.46 24.0543 129.803 24.3224 128.115 24.6599C127.215 24.8642 126.303 25.0101 125.385 25.0967Z" fill="#1A402B"/>
<path d="M119.418 19.9146L121.225 21.3441L122.962 22.8333C123.955 23.6672 125.543 23.28 127.34 22.8333C128.201 22.6144 129.083 22.4846 129.971 22.4461C129.385 21.8405 128.77 21.2846 128.164 20.6989C127.559 20.1131 126.963 19.5473 126.318 19.0112C125.325 18.1773 123.756 18.5843 122.079 19.1402C121.212 19.463 120.323 19.7218 119.418 19.9146Z" fill="#1A402B"/>
<path d="M105.966 11.6946C106.671 12.0024 107.346 12.3598 108.031 12.6874C108.716 13.015 109.411 13.3724 110.076 13.7496C111.198 14.4049 112.697 13.6107 114.355 12.8165C115.142 12.4231 115.967 12.1104 116.817 11.8833C115.427 10.9501 113.957 10.1559 112.508 9.31204C111.376 8.69654 109.887 9.51059 108.398 10.3842C107.616 10.8719 106.803 11.3096 105.966 11.6946Z" fill="#1A402B"/>
<path d="M98.6396 8.76595C100.099 9.23254 101.529 9.80833 102.948 10.3742C104.159 10.8408 105.539 9.94732 107.088 8.97442C107.829 8.48108 108.622 8.0684 109.451 7.74341C108.716 7.35624 107.932 7.03856 107.177 6.6911C106.423 6.34364 105.658 5.97632 104.874 5.69835C103.673 5.23176 102.303 6.15501 100.903 7.20733C100.19 7.78392 99.4328 8.30498 98.6396 8.76595Z" fill="#1A402B"/>
<path d="M83.2324 5.42041L85.5158 5.71824C86.2802 5.80758 87.0446 5.90686 87.7991 6.05577C89.0698 6.29403 90.2313 5.00346 91.5219 3.76252C92.125 3.12842 92.7902 2.55639 93.5074 2.05499C92.6933 1.86636 91.8793 1.66781 91.0553 1.49905L88.5933 1.06224C87.3623 0.81405 86.2206 2.10462 85.1087 3.42498C84.5376 4.13916 83.9101 4.80643 83.2324 5.42041Z" fill="#1A402B"/>
<path d="M91.0254 6.67129C92.5244 7.00882 94.0036 7.34636 95.4928 7.7931C95.8223 7.86138 96.1624 7.86137 96.4919 7.79307C96.8215 7.72477 97.1335 7.58963 97.4088 7.396C98.1258 6.96843 98.8094 6.48723 99.4538 5.95651C100.138 5.38957 100.876 4.89083 101.658 4.46738C100.079 3.9313 98.5008 3.36543 96.8826 2.94847C95.6417 2.58116 94.3809 3.66325 93.1201 4.93397C92.4649 5.56307 91.7648 6.14371 91.0254 6.67129Z" fill="#1A402B"/>
<path d="M112.926 15.4174C114.206 16.2612 115.537 17.0455 116.768 17.9588C117.83 18.7133 119.418 18.068 121.116 17.5022C121.949 17.1972 122.81 16.9744 123.687 16.837L121.702 15.2883C121.046 14.7721 120.352 14.2956 119.716 13.8191C118.723 13.0546 117.115 13.6999 115.527 14.4147C114.688 14.8183 113.818 15.1536 112.926 15.4174Z" fill="#1A402B"/>
<path d="M149.627 60.9549C148.91 60.5506 148.155 60.218 147.373 59.9621C146.503 59.6666 145.657 59.3049 144.842 58.88C145.189 60.3791 145.557 61.8583 145.835 63.3871C145.918 63.7137 146.068 64.0197 146.274 64.2861C146.481 64.5525 146.74 64.7736 147.036 64.9358C147.744 65.3855 148.484 65.7836 149.25 66.1271C150.058 66.4919 150.829 66.9341 151.553 67.4474C151.344 65.7895 151.146 64.1316 150.818 62.4837C150.74 62.1586 150.593 61.854 150.388 61.5903C150.183 61.3266 149.923 61.1099 149.627 60.9549Z" fill="#1A402B"/>
<path d="M148.724 67.9737C147.883 67.5871 147.073 67.1357 146.302 66.6235L146.59 68.9069L146.758 71.2001C146.887 72.5006 148.297 73.3345 149.846 74.2975C150.613 74.7501 151.334 75.2754 152 75.866L151.941 73.3643V72.1134L151.841 70.8626C151.702 69.5819 150.303 68.758 148.724 67.9737Z" fill="#1A402B"/>
<path d="M142.529 51.3252C142.797 52.04 143.026 52.7746 143.274 53.4993C143.522 54.224 143.78 54.9487 143.979 55.6834C144.316 56.9442 145.964 57.4207 147.682 58.0263C148.518 58.3031 149.325 58.6588 150.094 59.0885C149.896 58.2744 149.737 57.4604 149.508 56.6563L148.823 54.2439C148.496 52.993 146.838 52.5364 145.16 52.1095C144.267 51.9066 143.388 51.6446 142.529 51.3252Z" fill="#1A402B"/>
<path d="M133.485 30.7753C132.576 30.8806 131.66 30.9171 130.745 30.8845C131.678 32.1056 132.731 33.2671 133.545 34.5378C134.299 35.6001 136.017 35.5306 137.814 35.5306C138.698 35.5108 139.583 35.5773 140.454 35.7291L139.104 33.6245L137.655 31.5794C136.92 30.5073 135.222 30.6165 133.485 30.7753Z" fill="#1A402B"/>
<path d="M139.353 44.088C140.087 45.4382 140.663 46.8677 141.338 48.2576C141.834 49.4687 143.482 49.7765 145.309 50.1736C146.176 50.3407 147.022 50.6038 147.831 50.9578C147.582 50.1636 147.285 49.3794 146.967 48.605L145.934 46.2721C145.398 45.1006 143.75 44.8127 142.043 44.5745C141.136 44.4719 140.238 44.3094 139.353 44.088Z" fill="#1A402B"/>
<path d="M135.411 37.2579L136.652 39.1938L137.804 41.1793C138.479 42.2912 140.107 42.4302 141.924 42.6386C142.811 42.7116 143.69 42.8746 144.544 43.1251L143.413 40.8914L142.837 39.7696L142.211 38.7173C141.556 37.6054 139.938 37.4664 138.171 37.4565C137.247 37.4563 136.325 37.3899 135.411 37.2579Z" fill="#1A402B"/>
</g>
<defs>
<clipPath id="clip0">
<rect width="152" height="152" fill="white"/>
</clipPath>
</defs>
</svg>
